<svg xmlns="http://www.w3.org/2000/svg" width="900" height="300" viewBox="0 0 900 300" role="img" aria-label="Somay Kousis, aka Blink: a pair of pixel eyes blinking over a night sky"><style>@keyframes tw{0%,100%{opacity:.15}50%{opacity:1}}.st{animation:tw 3s ease-in-out infinite}@keyframes blink{0%,90%,100%{transform:scaleY(1)}93%,95%{transform:scaleY(.08)}}.eye{transform-box:fill-box;transform-origin:center;animation:blink 4.2s infinite}@keyframes look{0%,18%{transform:translate(0,0)}24%,42%{transform:translate(-8px,0)}48%,66%{transform:translate(8px,0)}72%,86%{transform:translate(0,4px)}92%,100%{transform:translate(0,0)}}.pupil{animation:look 9s steps(1,end) infinite}@keyframes peek{0%,100%{transform:translateY(0)}50%{transform:translateY(-10px)}}.pk{animation:peek 3.2s ease-in-out infinite}@media (prefers-reduced-motion: reduce){*{animation:none!important}}</style><rect width="900" height="300" fill="#0e1020"/><rect class="st" x="336" y="44" width="4" height="4" fill="#fff8e7" style="animation-delay:-0.22s;animation-duration:3.59s"/><rect class="st" x="380" y="156" width="2" height="2" fill="#fff8e7" style="animation-delay:-0.11s;animation-duration:3.33s"/><rect class="st" x="76" y="68" width="2" height="2" fill="#ffd21f" style="animation-delay:-0.18s;animation-duration:3.67s"/><rect class="st" x="236" y="168" width="2" height="2" fill="#ffd21f" style="animation-delay:-0.15s;animation-duration:2.77s"/><rect class="st" x="576" y="224" width="2" height="2" fill="#9fd8ff" style="animation-delay:-1.26s;animation-duration:3.61s"/><rect class="st" x="592" y="84" width="2" height="2" fill="#fff8e7" style="animation-delay:-1.74s;animation-duration:3.86s"/><rect class="st" x="388" y="32" width="2" height="2" fill="#fff8e7" style="animation-delay:-1.86s;animation-duration:3.49s"/><rect class="st" x="552" y="116" width="3" height="3" fill="#ffd21f" style="animation-delay:-1.76s;animation-duration:3.38s"/><rect class="st" x="312" y="68" width="2" height="2" fill="#fff8e7" style="animation-delay:-0.25s;animation-duration:2.98s"/><rect class="st" x="512" y="92" width="4" height="4" fill="#9fd8ff" style="animation-delay:-1.83s;animation-duration:2.39s"/><rect class="st" x="532" y="112" width="2" height="2" fill="#9fd8ff" style="animation-delay:-0.46s;animation-duration:3.47s"/><rect class="st" x="48" y="176" width="2" height="2" fill="#9fd8ff" style="animation-delay:-1.02s;animation-duration:3.11s"/><rect class="st" x="516" y="156" width="4" height="4" fill="#fff8e7" style="animation-delay:-2.52s;animation-duration:4.66s"/><rect class="st" x="492" y="184" width="2" height="2" fill="#fff8e7" style="animation-delay:-2.19s;animation-duration:3.00s"/><rect class="st" x="596" y="180" width="4" height="4" fill="#9fd8ff" style="animation-delay:-2.15s;animation-duration:4.51s"/><rect class="st" x="360" y="12" width="4" height="4" fill="#9fd8ff" style="animation-delay:-0.50s;animation-duration:2.50s"/><rect class="st" x="68" y="60" width="3" height="3" fill="#fff8e7" style="animation-delay:-2.22s;animation-duration:3.23s"/><rect class="st" x="516" y="28" width="2" height="2" fill="#ffd21f" style="animation-delay:-1.20s;animation-duration:2.92s"/><rect class="st" x="148" y="216" width="4" height="4" fill="#9fd8ff" style="animation-delay:-2.12s;animation-duration:4.76s"/><rect class="st" x="704" y="104" width="2" height="2" fill="#fff8e7" style="animation-delay:-0.25s;animation-duration:2.59s"/><rect class="st" x="680" y="64" width="2" height="2" fill="#ffd21f" style="animation-delay:-2.49s;animation-duration:2.67s"/><rect class="st" x="296" y="8" width="2" height="2" fill="#ffd21f" style="animation-delay:-1.60s;animation-duration:3.79s"/><rect class="st" x="332" y="40" width="2" height="2" fill="#ffd21f" style="animation-delay:-2.70s;animation-duration:4.23s"/><rect class="st" x="704" y="212" width="4" height="4" fill="#ffd21f" style="animation-delay:-1.20s;animation-duration:2.47s"/><rect class="st" x="656" y="108" width="2" height="2" fill="#fff8e7" style="animation-delay:-0.20s;animation-duration:2.74s"/><rect class="st" x="172" y="36" width="3" height="3" fill="#fff8e7" style="animation-delay:-0.31s;animation-duration:3.67s"/><rect class="st" x="556" y="32" width="3" height="3" fill="#fff8e7" style="animation-delay:-0.21s;animation-duration:2.74s"/><rect class="st" x="392" y="44" width="3" height="3" fill="#9fd8ff" style="animation-delay:-1.81s;animation-duration:3.43s"/><rect class="st" x="124" y="224" width="4" height="4" fill="#ffd21f" style="animation-delay:-1.44s;animation-duration:3.01s"/><rect class="st" x="152" y="32" width="3" height="3" fill="#9fd8ff" style="animation-delay:-1.44s;animation-duration:4.00s"/><rect class="st" x="536" y="12" width="2" height="2" fill="#9fd8ff" style="animation-delay:-0.44s;animation-duration:3.61s"/><rect class="st" x="32" y="200" width="3" height="3" fill="#fff8e7" style="animation-delay:-2.09s;animation-duration:2.88s"/><rect class="st" x="380" y="48" width="3" height="3" fill="#fff8e7" style="animation-delay:-1.60s;animation-duration:4.23s"/><rect class="st" x="344" y="168" width="2" height="2" fill="#fff8e7" style="animation-delay:-2.42s;animation-duration:4.33s"/><rect class="st" x="764" y="212" width="2" height="2" fill="#fff8e7" style="animation-delay:-1.55s;animation-duration:3.12s"/><rect class="st" x="36" y="12" width="3" height="3" fill="#ffd21f" style="animation-delay:-0.78s;animation-duration:4.00s"/><rect class="st" x="360" y="120" width="3" height="3" fill="#9fd8ff" style="animation-delay:-0.24s;animation-duration:2.47s"/><rect class="st" x="488" y="56" width="3" height="3" fill="#fff8e7" style="animation-delay:-1.45s;animation-duration:4.76s"/><rect class="st" x="632" y="220" width="2" height="2" fill="#ffd21f" style="animation-delay:-2.73s;animation-duration:3.09s"/><rect class="st" x="664" y="28" width="2" height="2" fill="#ffd21f" style="animation-delay:-2.35s;animation-duration:4.15s"/><rect class="st" x="496" y="52" width="4" height="4" fill="#9fd8ff" style="animation-delay:-0.26s;animation-duration:4.66s"/><rect class="st" x="744" y="108" width="4" height="4" fill="#ffd21f" style="animation-delay:-2.23s;animation-duration:2.42s"/><rect class="st" x="168" y="48" width="2" height="2" fill="#fff8e7" style="animation-delay:-0.45s;animation-duration:4.55s"/><rect class="st" x="832" y="172" width="2" height="2" fill="#ffd21f" style="animation-delay:-1.97s;animation-duration:3.11s"/><rect class="st" x="568" y="148" width="2" height="2" fill="#fff8e7" style="animation-delay:-0.04s;animation-duration:4.72s"/><rect class="st" x="672" y="32" width="2" height="2" fill="#ffd21f" style="animation-delay:-2.96s;animation-duration:2.71s"/><rect y="266" width="900" height="34" fill="#15182e"/><g class="eye" shape-rendering="crispEdges"><rect x="390" y="50" width="4" height="4" fill="#1f1238"/><rect x="394" y="50" width="4" height="4" fill="#1f1238"/><rect x="398" y="50" width="4" height="4" fill="#1f1238"/><rect x="402" y="50" width="4" height="4" fill="#1f1238"/><rect x="406" y="50" width="4" height="4" fill="#1f1238"/><rect x="410" y="50" width="4" height="4" fill="#1f1238"/><rect x="414" y="50" width="4" height="4" fill="#1f1238"/><rect x="386" y="54" width="4" height="4" fill="#1f1238"/><rect x="390" y="54" width="4" height="4" fill="#1f1238"/><rect x="394" y="54" width="4" height="4" fill="#fff8e7"/><rect x="398" y="54" width="4" height="4" fill="#fff8e7"/><rect x="402" y="54" width="4" height="4" fill="#fff8e7"/><rect x="406" y="54" width="4" height="4" fill="#fff8e7"/><rect x="410" y="54" width="4" height="4" fill="#fff8e7"/><rect x="414" y="54" width="4" height="4" fill="#1f1238"/><rect x="418" y="54" width="4" height="4" fill="#1f1238"/><rect x="382" y="58" width="4" height="4" fill="#1f1238"/><rect x="386" y="58" width="4" height="4" fill="#fff8e7"/><rect x="390" y="58" width="4" height="4" fill="#fff8e7"/><rect x="394" y="58" width="4" height="4" fill="#fff8e7"/><rect x="398" y="58" width="4" height="4" fill="#fff8e7"/><rect x="402" y="58" width="4" height="4" fill="#fff8e7"/><rect x="406" y="58" width="4" height="4" fill="#fff8e7"/><rect x="410" y="58" width="4" height="4" fill="#fff8e7"/><rect x="414" y="58" width="4" height="4" fill="#fff8e7"/><rect x="418" y="58" width="4" height="4" fill="#fff8e7"/><rect x="422" y="58" width="4" height="4" fill="#1f1238"/><rect x="378" y="62" width="4" height="4" fill="#1f1238"/><rect x="382" y="62" width="4" height="4" fill="#fff8e7"/><rect x="386" y="62" width="4" height="4" fill="#fff8e7"/><rect x="390" y="62" width="4" height="4" fill="#fff8e7"/><rect x="394" y="62" width="4" height="4" fill="#fff8e7"/><rect x="398" y="62" width="4" height="4" fill="#fff8e7"/><rect x="402" y="62" width="4" height="4" fill="#fff8e7"/><rect x="406" y="62" width="4" height="4" fill="#fff8e7"/><rect x="410" y="62" width="4" height="4" fill="#fff8e7"/><rect x="414" y="62" width="4" height="4" fill="#fff8e7"/><rect x="418" y="62" width="4" height="4" fill="#fff8e7"/><rect x="422" y="62" width="4" height="4" fill="#fff8e7"/><rect x="426" y="62" width="4" height="4" fill="#1f1238"/><rect x="374" y="66" width="4" height="4" fill="#1f1238"/><rect x="378" y="66" width="4" height="4" fill="#1f1238"/><rect x="382" y="66" width="4" height="4" fill="#fff8e7"/><rect x="386" y="66" width="4" height="4" fill="#fff8e7"/><rect x="390" y="66" width="4" height="4" fill="#fff8e7"/><rect x="394" y="66" width="4" height="4" fill="#fff8e7"/><rect x="398" y="66" width="4" height="4" fill="#fff8e7"/><rect x="402" y="66" width="4" height="4" fill="#fff8e7"/><rect x="406" y="66" width="4" height="4" fill="#fff8e7"/><rect x="410" y="66" width="4" height="4" fill="#fff8e7"/><rect x="414" y="66" width="4" height="4" fill="#fff8e7"/><rect x="418" y="66" width="4" height="4" fill="#fff8e7"/><rect x="422" y="66" width="4" height="4" fill="#fff8e7"/><rect x="426" y="66" width="4" height="4" fill="#1f1238"/><rect x="430" y="66" width="4" height="4" fill="#1f1238"/><rect x="374" y="70" width="4" height="4" fill="#1f1238"/><rect x="378" y="70" width="4" height="4" fill="#fff8e7"/><rect x="382" y="70" width="4" height="4" fill="#fff8e7"/><rect x="386" y="70" width="4" height="4" fill="#fff8e7"/><rect x="390" y="70" width="4" height="4" fill="#fff8e7"/><rect x="394" y="70" width="4" height="4" fill="#fff8e7"/><rect x="398" y="70" width="4" height="4" fill="#fff8e7"/><rect x="402" y="70" width="4" height="4" fill="#fff8e7"/><rect x="406" y="70" width="4" height="4" fill="#fff8e7"/><rect x="410" y="70" width="4" height="4" fill="#fff8e7"/><rect x="414" y="70" width="4" height="4" fill="#fff8e7"/><rect x="418" y="70" width="4" height="4" fill="#fff8e7"/><rect x="422" y="70" width="4" height="4" fill="#fff8e7"/><rect x="426" y="70" width="4" height="4" fill="#fff8e7"/><rect x="430" y="70" width="4" height="4" fill="#1f1238"/><rect x="374" y="74" width="4" height="4" fill="#1f1238"/><rect x="378" y="74" width="4" height="4" fill="#fff8e7"/><rect x="382" y="74" width="4" height="4" fill="#fff8e7"/><rect x="386" y="74" width="4" height="4" fill="#fff8e7"/><rect x="390" y="74" width="4" height="4" fill="#fff8e7"/><rect x="394" y="74" width="4" height="4" fill="#fff8e7"/><rect x="398" y="74" width="4" height="4" fill="#fff8e7"/><rect x="402" y="74" width="4" height="4" fill="#fff8e7"/><rect x="406" y="74" width="4" height="4" fill="#fff8e7"/><rect x="410" y="74" width="4" height="4" fill="#fff8e7"/><rect x="414" y="74" width="4" height="4" fill="#fff8e7"/><rect x="418" y="74" width="4" height="4" fill="#fff8e7"/><rect x="422" y="74" width="4" height="4" fill="#fff8e7"/><rect x="426" y="74" width="4" height="4" fill="#fff8e7"/><rect x="430" y="74" width="4" height="4" fill="#1f1238"/><rect x="374" y="78" width="4" height="4" fill="#1f1238"/><rect x="378" y="78" width="4" height="4" fill="#fff8e7"/><rect x="382" y="78" width="4" height="4" fill="#fff8e7"/><rect x="386" y="78" width="4" height="4" fill="#fff8e7"/><rect x="390" y="78" width="4" height="4" fill="#fff8e7"/><rect x="394" y="78" width="4" height="4" fill="#fff8e7"/><rect x="398" y="78" width="4" height="4" fill="#fff8e7"/><rect x="402" y="78" width="4" height="4" fill="#fff8e7"/><rect x="406" y="78" width="4" height="4" fill="#fff8e7"/><rect x="410" y="78" width="4" height="4" fill="#fff8e7"/><rect x="414" y="78" width="4" height="4" fill="#fff8e7"/><rect x="418" y="78" width="4" height="4" fill="#fff8e7"/><rect x="422" y="78" width="4" height="4" fill="#fff8e7"/><rect x="426" y="78" width="4" height="4" fill="#fff8e7"/><rect x="430" y="78" width="4" height="4" fill="#1f1238"/><rect x="374" y="82" width="4" height="4" fill="#1f1238"/><rect x="378" y="82" width="4" height="4" fill="#fff8e7"/><rect x="382" y="82" width="4" height="4" fill="#fff8e7"/><rect x="386" y="82" width="4" height="4" fill="#fff8e7"/><rect x="390" y="82" width="4" height="4" fill="#fff8e7"/><rect x="394" y="82" width="4" height="4" fill="#fff8e7"/><rect x="398" y="82" width="4" height="4" fill="#fff8e7"/><rect x="402" y="82" width="4" height="4" fill="#fff8e7"/><rect x="406" y="82" width="4" height="4" fill="#fff8e7"/><rect x="410" y="82" width="4" height="4" fill="#fff8e7"/><rect x="414" y="82" width="4" height="4" fill="#fff8e7"/><rect x="418" y="82" width="4" height="4" fill="#fff8e7"/><rect x="422" y="82" width="4" height="4" fill="#fff8e7"/><rect x="426" y="82" width="4" height="4" fill="#fff8e7"/><rect x="430" y="82" width="4" height="4" fill="#1f1238"/><rect x="374" y="86" width="4" height="4" fill="#1f1238"/><rect x="378" y="86" width="4" height="4" fill="#fff8e7"/><rect x="382" y="86" width="4" height="4" fill="#fff8e7"/><rect x="386" y="86" width="4" height="4" fill="#fff8e7"/><rect x="390" y="86" width="4" height="4" fill="#fff8e7"/><rect x="394" y="86" width="4" height="4" fill="#fff8e7"/><rect x="398" y="86" width="4" height="4" fill="#fff8e7"/><rect x="402" y="86" width="4" height="4" fill="#fff8e7"/><rect x="406" y="86" width="4" height="4" fill="#fff8e7"/><rect x="410" y="86" width="4" height="4" fill="#fff8e7"/><rect x="414" y="86" width="4" height="4" fill="#fff8e7"/><rect x="418" y="86" width="4" height="4" fill="#fff8e7"/><rect x="422" y="86" width="4" height="4" fill="#fff8e7"/><rect x="426" y="86" width="4" height="4" fill="#fff8e7"/><rect x="430" y="86" width="4" height="4" fill="#1f1238"/><rect x="374" y="90" width="4" height="4" fill="#1f1238"/><rect x="378" y="90" width="4" height="4" fill="#1f1238"/><rect x="382" y="90" width="4" height="4" fill="#fff8e7"/><rect x="386" y="90" width="4" height="4" fill="#fff8e7"/><rect x="390" y="90" width="4" height="4" fill="#fff8e7"/><rect x="394" y="90" width="4" height="4" fill="#fff8e7"/><rect x="398" y="90" width="4" height="4" fill="#fff8e7"/><rect x="402" y="90" width="4" height="4" fill="#fff8e7"/><rect x="406" y="90" width="4" height="4" fill="#fff8e7"/><rect x="410" y="90" width="4" height="4" fill="#fff8e7"/><rect x="414" y="90" width="4" height="4" fill="#fff8e7"/><rect x="418" y="90" width="4" height="4" fill="#fff8e7"/><rect x="422" y="90" width="4" height="4" fill="#fff8e7"/><rect x="426" y="90" width="4" height="4" fill="#1f1238"/><rect x="430" y="90" width="4" height="4" fill="#1f1238"/><rect x="378" y="94" width="4" height="4" fill="#1f1238"/><rect x="382" y="94" width="4" height="4" fill="#fff8e7"/><rect x="386" y="94" width="4" height="4" fill="#fff8e7"/><rect x="390" y="94" width="4" height="4" fill="#fff8e7"/><rect x="394" y="94" width="4" height="4" fill="#fff8e7"/><rect x="398" y="94" width="4" height="4" fill="#fff8e7"/><rect x="402" y="94" width="4" height="4" fill="#fff8e7"/><rect x="406" y="94" width="4" height="4" fill="#fff8e7"/><rect x="410" y="94" width="4" height="4" fill="#fff8e7"/><rect x="414" y="94" width="4" height="4" fill="#fff8e7"/><rect x="418" y="94" width="4" height="4" fill="#fff8e7"/><rect x="422" y="94" width="4" height="4" fill="#fff8e7"/><rect x="426" y="94" width="4" height="4" fill="#1f1238"/><rect x="382" y="98" width="4" height="4" fill="#1f1238"/><rect x="386" y="98" width="4" height="4" fill="#fff8e7"/><rect x="390" y="98" width="4" height="4" fill="#fff8e7"/><rect x="394" y="98" width="4" height="4" fill="#fff8e7"/><rect x="398" y="98" width="4" height="4" fill="#fff8e7"/><rect x="402" y="98" width="4" height="4" fill="#fff8e7"/><rect x="406" y="98" width="4" height="4" fill="#fff8e7"/><rect x="410" y="98" width="4" height="4" fill="#fff8e7"/><rect x="414" y="98" width="4" height="4" fill="#fff8e7"/><rect x="418" y="98" width="4" height="4" fill="#fff8e7"/><rect x="422" y="98" width="4" height="4" fill="#1f1238"/><rect x="386" y="102" width="4" height="4" fill="#1f1238"/><rect x="390" y="102" width="4" height="4" fill="#1f1238"/><rect x="394" y="102" width="4" height="4" fill="#fff8e7"/><rect x="398" y="102" width="4" height="4" fill="#fff8e7"/><rect x="402" y="102" width="4" height="4" fill="#fff8e7"/><rect x="406" y="102" width="4" height="4" fill="#fff8e7"/><rect x="410" y="102" width="4" height="4" fill="#fff8e7"/><rect x="414" y="102" width="4" height="4" fill="#1f1238"/><rect x="418" y="102" width="4" height="4" fill="#1f1238"/><rect x="390" y="106" width="4" height="4" fill="#1f1238"/><rect x="394" y="106" width="4" height="4" fill="#1f1238"/><rect x="398" y="106" width="4" height="4" fill="#1f1238"/><rect x="402" y="106" width="4" height="4" fill="#1f1238"/><rect x="406" y="106" width="4" height="4" fill="#1f1238"/><rect x="410" y="106" width="4" height="4" fill="#1f1238"/><rect x="414" y="106" width="4" height="4" fill="#1f1238"/><g class="pupil"><rect x="392" y="68" width="20" height="20" fill="#1f1238"/><rect x="396" y="72" width="6" height="6" fill="#fff8e7"/></g></g><g class="eye" shape-rendering="crispEdges"><rect x="486" y="50" width="4" height="4" fill="#1f1238"/><rect x="490" y="50" width="4" height="4" fill="#1f1238"/><rect x="494" y="50" width="4" height="4" fill="#1f1238"/><rect x="498" y="50" width="4" height="4" fill="#1f1238"/><rect x="502" y="50" width="4" height="4" fill="#1f1238"/><rect x="506" y="50" width="4" height="4" fill="#1f1238"/><rect x="510" y="50" width="4" height="4" fill="#1f1238"/><rect x="482" y="54" width="4" height="4" fill="#1f1238"/><rect x="486" y="54" width="4" height="4" fill="#1f1238"/><rect x="490" y="54" width="4" height="4" fill="#fff8e7"/><rect x="494" y="54" width="4" height="4" fill="#fff8e7"/><rect x="498" y="54" width="4" height="4" fill="#fff8e7"/><rect x="502" y="54" width="4" height="4" fill="#fff8e7"/><rect x="506" y="54" width="4" height="4" fill="#fff8e7"/><rect x="510" y="54" width="4" height="4" fill="#1f1238"/><rect x="514" y="54" width="4" height="4" fill="#1f1238"/><rect x="478" y="58" width="4" height="4" fill="#1f1238"/><rect x="482" y="58" width="4" height="4" fill="#fff8e7"/><rect x="486" y="58" width="4" height="4" fill="#fff8e7"/><rect x="490" y="58" width="4" height="4" fill="#fff8e7"/><rect x="494" y="58" width="4" height="4" fill="#fff8e7"/><rect x="498" y="58" width="4" height="4" fill="#fff8e7"/><rect x="502" y="58" width="4" height="4" fill="#fff8e7"/><rect x="506" y="58" width="4" height="4" fill="#fff8e7"/><rect x="510" y="58" width="4" height="4" fill="#fff8e7"/><rect x="514" y="58" width="4" height="4" fill="#fff8e7"/><rect x="518" y="58" width="4" height="4" fill="#1f1238"/><rect x="474" y="62" width="4" height="4" fill="#1f1238"/><rect x="478" y="62" width="4" height="4" fill="#fff8e7"/><rect x="482" y="62" width="4" height="4" fill="#fff8e7"/><rect x="486" y="62" width="4" height="4" fill="#fff8e7"/><rect x="490" y="62" width="4" height="4" fill="#fff8e7"/><rect x="494" y="62" width="4" height="4" fill="#fff8e7"/><rect x="498" y="62" width="4" height="4" fill="#fff8e7"/><rect x="502" y="62" width="4" height="4" fill="#fff8e7"/><rect x="506" y="62" width="4" height="4" fill="#fff8e7"/><rect x="510" y="62" width="4" height="4" fill="#fff8e7"/><rect x="514" y="62" width="4" height="4" fill="#fff8e7"/><rect x="518" y="62" width="4" height="4" fill="#fff8e7"/><rect x="522" y="62" width="4" height="4" fill="#1f1238"/><rect x="470" y="66" width="4" height="4" fill="#1f1238"/><rect x="474" y="66" width="4" height="4" fill="#1f1238"/><rect x="478" y="66" width="4" height="4" fill="#fff8e7"/><rect x="482" y="66" width="4" height="4" fill="#fff8e7"/><rect x="486" y="66" width="4" height="4" fill="#fff8e7"/><rect x="490" y="66" width="4" height="4" fill="#fff8e7"/><rect x="494" y="66" width="4" height="4" fill="#fff8e7"/><rect x="498" y="66" width="4" height="4" fill="#fff8e7"/><rect x="502" y="66" width="4" height="4" fill="#fff8e7"/><rect x="506" y="66" width="4" height="4" fill="#fff8e7"/><rect x="510" y="66" width="4" height="4" fill="#fff8e7"/><rect x="514" y="66" width="4" height="4" fill="#fff8e7"/><rect x="518" y="66" width="4" height="4" fill="#fff8e7"/><rect x="522" y="66" width="4" height="4" fill="#1f1238"/><rect x="526" y="66" width="4" height="4" fill="#1f1238"/><rect x="470" y="70" width="4" height="4" fill="#1f1238"/><rect x="474" y="70" width="4" height="4" fill="#fff8e7"/><rect x="478" y="70" width="4" height="4" fill="#fff8e7"/><rect x="482" y="70" width="4" height="4" fill="#fff8e7"/><rect x="486" y="70" width="4" height="4" fill="#fff8e7"/><rect x="490" y="70" width="4" height="4" fill="#fff8e7"/><rect x="494" y="70" width="4" height="4" fill="#fff8e7"/><rect x="498" y="70" width="4" height="4" fill="#fff8e7"/><rect x="502" y="70" width="4" height="4" fill="#fff8e7"/><rect x="506" y="70" width="4" height="4" fill="#fff8e7"/><rect x="510" y="70" width="4" height="4" fill="#fff8e7"/><rect x="514" y="70" width="4" height="4" fill="#fff8e7"/><rect x="518" y="70" width="4" height="4" fill="#fff8e7"/><rect x="522" y="70" width="4" height="4" fill="#fff8e7"/><rect x="526" y="70" width="4" height="4" fill="#1f1238"/><rect x="470" y="74" width="4" height="4" fill="#1f1238"/><rect x="474" y="74" width="4" height="4" fill="#fff8e7"/><rect x="478" y="74" width="4" height="4" fill="#fff8e7"/><rect x="482" y="74" width="4" height="4" fill="#fff8e7"/><rect x="486" y="74" width="4" height="4" fill="#fff8e7"/><rect x="490" y="74" width="4" height="4" fill="#fff8e7"/><rect x="494" y="74" width="4" height="4" fill="#fff8e7"/><rect x="498" y="74" width="4" height="4" fill="#fff8e7"/><rect x="502" y="74" width="4" height="4" fill="#fff8e7"/><rect x="506" y="74" width="4" height="4" fill="#fff8e7"/><rect x="510" y="74" width="4" height="4" fill="#fff8e7"/><rect x="514" y="74" width="4" height="4" fill="#fff8e7"/><rect x="518" y="74" width="4" height="4" fill="#fff8e7"/><rect x="522" y="74" width="4" height="4" fill="#fff8e7"/><rect x="526" y="74" width="4" height="4" fill="#1f1238"/><rect x="470" y="78" width="4" height="4" fill="#1f1238"/><rect x="474" y="78" width="4" height="4" fill="#fff8e7"/><rect x="478" y="78" width="4" height="4" fill="#fff8e7"/><rect x="482" y="78" width="4" height="4" fill="#fff8e7"/><rect x="486" y="78" width="4" height="4" fill="#fff8e7"/><rect x="490" y="78" width="4" height="4" fill="#fff8e7"/><rect x="494" y="78" width="4" height="4" fill="#fff8e7"/><rect x="498" y="78" width="4" height="4" fill="#fff8e7"/><rect x="502" y="78" width="4" height="4" fill="#fff8e7"/><rect x="506" y="78" width="4" height="4" fill="#fff8e7"/><rect x="510" y="78" width="4" height="4" fill="#fff8e7"/><rect x="514" y="78" width="4" height="4" fill="#fff8e7"/><rect x="518" y="78" width="4" height="4" fill="#fff8e7"/><rect x="522" y="78" width="4" height="4" fill="#fff8e7"/><rect x="526" y="78" width="4" height="4" fill="#1f1238"/><rect x="470" y="82" width="4" height="4" fill="#1f1238"/><rect x="474" y="82" width="4" height="4" fill="#fff8e7"/><rect x="478" y="82" width="4" height="4" fill="#fff8e7"/><rect x="482" y="82" width="4" height="4" fill="#fff8e7"/><rect x="486" y="82" width="4" height="4" fill="#fff8e7"/><rect x="490" y="82" width="4" height="4" fill="#fff8e7"/><rect x="494" y="82" width="4" height="4" fill="#fff8e7"/><rect x="498" y="82" width="4" height="4" fill="#fff8e7"/><rect x="502" y="82" width="4" height="4" fill="#fff8e7"/><rect x="506" y="82" width="4" height="4" fill="#fff8e7"/><rect x="510" y="82" width="4" height="4" fill="#fff8e7"/><rect x="514" y="82" width="4" height="4" fill="#fff8e7"/><rect x="518" y="82" width="4" height="4" fill="#fff8e7"/><rect x="522" y="82" width="4" height="4" fill="#fff8e7"/><rect x="526" y="82" width="4" height="4" fill="#1f1238"/><rect x="470" y="86" width="4" height="4" fill="#1f1238"/><rect x="474" y="86" width="4" height="4" fill="#fff8e7"/><rect x="478" y="86" width="4" height="4" fill="#fff8e7"/><rect x="482" y="86" width="4" height="4" fill="#fff8e7"/><rect x="486" y="86" width="4" height="4" fill="#fff8e7"/><rect x="490" y="86" width="4" height="4" fill="#fff8e7"/><rect x="494" y="86" width="4" height="4" fill="#fff8e7"/><rect x="498" y="86" width="4" height="4" fill="#fff8e7"/><rect x="502" y="86" width="4" height="4" fill="#fff8e7"/><rect x="506" y="86" width="4" height="4" fill="#fff8e7"/><rect x="510" y="86" width="4" height="4" fill="#fff8e7"/><rect x="514" y="86" width="4" height="4" fill="#fff8e7"/><rect x="518" y="86" width="4" height="4" fill="#fff8e7"/><rect x="522" y="86" width="4" height="4" fill="#fff8e7"/><rect x="526" y="86" width="4" height="4" fill="#1f1238"/><rect x="470" y="90" width="4" height="4" fill="#1f1238"/><rect x="474" y="90" width="4" height="4" fill="#1f1238"/><rect x="478" y="90" width="4" height="4" fill="#fff8e7"/><rect x="482" y="90" width="4" height="4" fill="#fff8e7"/><rect x="486" y="90" width="4" height="4" fill="#fff8e7"/><rect x="490" y="90" width="4" height="4" fill="#fff8e7"/><rect x="494" y="90" width="4" height="4" fill="#fff8e7"/><rect x="498" y="90" width="4" height="4" fill="#fff8e7"/><rect x="502" y="90" width="4" height="4" fill="#fff8e7"/><rect x="506" y="90" width="4" height="4" fill="#fff8e7"/><rect x="510" y="90" width="4" height="4" fill="#fff8e7"/><rect x="514" y="90" width="4" height="4" fill="#fff8e7"/><rect x="518" y="90" width="4" height="4" fill="#fff8e7"/><rect x="522" y="90" width="4" height="4" fill="#1f1238"/><rect x="526" y="90" width="4" height="4" fill="#1f1238"/><rect x="474" y="94" width="4" height="4" fill="#1f1238"/><rect x="478" y="94" width="4" height="4" fill="#fff8e7"/><rect x="482" y="94" width="4" height="4" fill="#fff8e7"/><rect x="486" y="94" width="4" height="4" fill="#fff8e7"/><rect x="490" y="94" width="4" height="4" fill="#fff8e7"/><rect x="494" y="94" width="4" height="4" fill="#fff8e7"/><rect x="498" y="94" width="4" height="4" fill="#fff8e7"/><rect x="502" y="94" width="4" height="4" fill="#fff8e7"/><rect x="506" y="94" width="4" height="4" fill="#fff8e7"/><rect x="510" y="94" width="4" height="4" fill="#fff8e7"/><rect x="514" y="94" width="4" height="4" fill="#fff8e7"/><rect x="518" y="94" width="4" height="4" fill="#fff8e7"/><rect x="522" y="94" width="4" height="4" fill="#1f1238"/><rect x="478" y="98" width="4" height="4" fill="#1f1238"/><rect x="482" y="98" width="4" height="4" fill="#fff8e7"/><rect x="486" y="98" width="4" height="4" fill="#fff8e7"/><rect x="490" y="98" width="4" height="4" fill="#fff8e7"/><rect x="494" y="98" width="4" height="4" fill="#fff8e7"/><rect x="498" y="98" width="4" height="4" fill="#fff8e7"/><rect x="502" y="98" width="4" height="4" fill="#fff8e7"/><rect x="506" y="98" width="4" height="4" fill="#fff8e7"/><rect x="510" y="98" width="4" height="4" fill="#fff8e7"/><rect x="514" y="98" width="4" height="4" fill="#fff8e7"/><rect x="518" y="98" width="4" height="4" fill="#1f1238"/><rect x="482" y="102" width="4" height="4" fill="#1f1238"/><rect x="486" y="102" width="4" height="4" fill="#1f1238"/><rect x="490" y="102" width="4" height="4" fill="#fff8e7"/><rect x="494" y="102" width="4" height="4" fill="#fff8e7"/><rect x="498" y="102" width="4" height="4" fill="#fff8e7"/><rect x="502" y="102" width="4" height="4" fill="#fff8e7"/><rect x="506" y="102" width="4" height="4" fill="#fff8e7"/><rect x="510" y="102" width="4" height="4" fill="#1f1238"/><rect x="514" y="102" width="4" height="4" fill="#1f1238"/><rect x="486" y="106" width="4" height="4" fill="#1f1238"/><rect x="490" y="106" width="4" height="4" fill="#1f1238"/><rect x="494" y="106" width="4" height="4" fill="#1f1238"/><rect x="498" y="106" width="4" height="4" fill="#1f1238"/><rect x="502" y="106" width="4" height="4" fill="#1f1238"/><rect x="506" y="106" width="4" height="4" fill="#1f1238"/><rect x="510" y="106" width="4" height="4" fill="#1f1238"/><g class="pupil"><rect x="488" y="68" width="20" height="20" fill="#1f1238"/><rect x="492" y="72" width="6" height="6" fill="#fff8e7"/></g></g><path d="M249 130h6v6h-6zM255 130h6v6h-6zM261 130h6v6h-6zM267 130h6v6h-6zM243 136h6v6h-6zM243 142h6v6h-6zM249 148h6v6h-6zM255 148h6v6h-6zM261 148h6v6h-6zM267 154h6v6h-6zM267 160h6v6h-6zM243 166h6v6h-6zM249 166h6v6h-6zM255 166h6v6h-6zM261 166h6v6h-6zM285 130h6v6h-6zM291 130h6v6h-6zM297 130h6v6h-6zM279 136h6v6h-6zM303 136h6v6h-6zM279 142h6v6h-6zM303 142h6v6h-6zM279 148h6v6h-6zM303 148h6v6h-6zM279 154h6v6h-6zM303 154h6v6h-6zM279 160h6v6h-6zM303 160h6v6h-6zM285 166h6v6h-6zM291 166h6v6h-6zM297 166h6v6h-6zM315 130h6v6h-6zM339 130h6v6h-6zM315 136h6v6h-6zM321 136h6v6h-6zM333 136h6v6h-6zM339 136h6v6h-6zM315 142h6v6h-6zM327 142h6v6h-6zM339 142h6v6h-6zM315 148h6v6h-6zM327 148h6v6h-6zM339 148h6v6h-6zM315 154h6v6h-6zM339 154h6v6h-6zM315 160h6v6h-6zM339 160h6v6h-6zM315 166h6v6h-6zM339 166h6v6h-6zM357 130h6v6h-6zM363 130h6v6h-6zM369 130h6v6h-6zM351 136h6v6h-6zM375 136h6v6h-6zM351 142h6v6h-6zM375 142h6v6h-6zM351 148h6v6h-6zM357 148h6v6h-6zM363 148h6v6h-6zM369 148h6v6h-6zM375 148h6v6h-6zM351 154h6v6h-6zM375 154h6v6h-6zM351 160h6v6h-6zM375 160h6v6h-6zM351 166h6v6h-6zM375 166h6v6h-6zM387 130h6v6h-6zM411 130h6v6h-6zM387 136h6v6h-6zM411 136h6v6h-6zM393 142h6v6h-6zM405 142h6v6h-6zM399 148h6v6h-6zM399 154h6v6h-6zM399 160h6v6h-6zM399 166h6v6h-6zM447 130h6v6h-6zM471 130h6v6h-6zM447 136h6v6h-6zM465 136h6v6h-6zM447 142h6v6h-6zM459 142h6v6h-6zM447 148h6v6h-6zM453 148h6v6h-6zM447 154h6v6h-6zM459 154h6v6h-6zM447 160h6v6h-6zM465 160h6v6h-6zM447 166h6v6h-6zM471 166h6v6h-6zM489 130h6v6h-6zM495 130h6v6h-6zM501 130h6v6h-6zM483 136h6v6h-6zM507 136h6v6h-6zM483 142h6v6h-6zM507 142h6v6h-6zM483 148h6v6h-6zM507 148h6v6h-6zM483 154h6v6h-6zM507 154h6v6h-6zM483 160h6v6h-6zM507 160h6v6h-6zM489 166h6v6h-6zM495 166h6v6h-6zM501 166h6v6h-6zM519 130h6v6h-6zM543 130h6v6h-6zM519 136h6v6h-6zM543 136h6v6h-6zM519 142h6v6h-6zM543 142h6v6h-6zM519 148h6v6h-6zM543 148h6v6h-6zM519 154h6v6h-6zM543 154h6v6h-6zM519 160h6v6h-6zM543 160h6v6h-6zM525 166h6v6h-6zM531 166h6v6h-6zM537 166h6v6h-6zM561 130h6v6h-6zM567 130h6v6h-6zM573 130h6v6h-6zM579 130h6v6h-6zM555 136h6v6h-6zM555 142h6v6h-6zM561 148h6v6h-6zM567 148h6v6h-6zM573 148h6v6h-6zM579 154h6v6h-6zM579 160h6v6h-6zM555 166h6v6h-6zM561 166h6v6h-6zM567 166h6v6h-6zM573 166h6v6h-6zM591 130h6v6h-6zM597 130h6v6h-6zM603 130h6v6h-6zM609 130h6v6h-6zM615 130h6v6h-6zM603 136h6v6h-6zM603 142h6v6h-6zM603 148h6v6h-6zM603 154h6v6h-6zM603 160h6v6h-6zM591 166h6v6h-6zM597 166h6v6h-6zM603 166h6v6h-6zM609 166h6v6h-6zM615 166h6v6h-6zM633 130h6v6h-6zM639 130h6v6h-6zM645 130h6v6h-6zM651 130h6v6h-6zM627 136h6v6h-6zM627 142h6v6h-6zM633 148h6v6h-6zM639 148h6v6h-6zM645 148h6v6h-6zM651 154h6v6h-6zM651 160h6v6h-6zM627 166h6v6h-6zM633 166h6v6h-6zM639 166h6v6h-6zM645 166h6v6h-6z" fill="#fff8e7" shape-rendering="crispEdges"/><path d="M376.5 186h3v3h-3zM379.5 186h3v3h-3zM382.5 186h3v3h-3zM373.5 189h3v3h-3zM385.5 189h3v3h-3zM373.5 192h3v3h-3zM385.5 192h3v3h-3zM373.5 195h3v3h-3zM376.5 195h3v3h-3zM379.5 195h3v3h-3zM382.5 195h3v3h-3zM385.5 195h3v3h-3zM373.5 198h3v3h-3zM385.5 198h3v3h-3zM373.5 201h3v3h-3zM385.5 201h3v3h-3zM373.5 204h3v3h-3zM385.5 204h3v3h-3zM391.5 186h3v3h-3zM403.5 186h3v3h-3zM391.5 189h3v3h-3zM400.5 189h3v3h-3zM391.5 192h3v3h-3zM397.5 192h3v3h-3zM391.5 195h3v3h-3zM394.5 195h3v3h-3zM391.5 198h3v3h-3zM397.5 198h3v3h-3zM391.5 201h3v3h-3zM400.5 201h3v3h-3zM391.5 204h3v3h-3zM403.5 204h3v3h-3zM412.5 186h3v3h-3zM415.5 186h3v3h-3zM418.5 186h3v3h-3zM409.5 189h3v3h-3zM421.5 189h3v3h-3zM409.5 192h3v3h-3zM421.5 192h3v3h-3zM409.5 195h3v3h-3zM412.5 195h3v3h-3zM415.5 195h3v3h-3zM418.5 195h3v3h-3zM421.5 195h3v3h-3zM409.5 198h3v3h-3zM421.5 198h3v3h-3zM409.5 201h3v3h-3zM421.5 201h3v3h-3zM409.5 204h3v3h-3zM421.5 204h3v3h-3zM439.5 186h3v3h-3zM442.5 186h3v3h-3zM445.5 186h3v3h-3zM448.5 186h3v3h-3zM439.5 189h3v3h-3zM451.5 189h3v3h-3zM439.5 192h3v3h-3zM451.5 192h3v3h-3zM439.5 195h3v3h-3zM442.5 195h3v3h-3zM445.5 195h3v3h-3zM448.5 195h3v3h-3zM439.5 198h3v3h-3zM451.5 198h3v3h-3zM439.5 201h3v3h-3zM451.5 201h3v3h-3zM439.5 204h3v3h-3zM442.5 204h3v3h-3zM445.5 204h3v3h-3zM448.5 204h3v3h-3zM457.5 186h3v3h-3zM457.5 189h3v3h-3zM457.5 192h3v3h-3zM457.5 195h3v3h-3zM457.5 198h3v3h-3zM457.5 201h3v3h-3zM457.5 204h3v3h-3zM460.5 204h3v3h-3zM463.5 204h3v3h-3zM466.5 204h3v3h-3zM469.5 204h3v3h-3zM475.5 186h3v3h-3zM478.5 186h3v3h-3zM481.5 186h3v3h-3zM484.5 186h3v3h-3zM487.5 186h3v3h-3zM481.5 189h3v3h-3zM481.5 192h3v3h-3zM481.5 195h3v3h-3zM481.5 198h3v3h-3zM481.5 201h3v3h-3zM475.5 204h3v3h-3zM478.5 204h3v3h-3zM481.5 204h3v3h-3zM484.5 204h3v3h-3zM487.5 204h3v3h-3zM493.5 186h3v3h-3zM505.5 186h3v3h-3zM493.5 189h3v3h-3zM496.5 189h3v3h-3zM505.5 189h3v3h-3zM493.5 192h3v3h-3zM499.5 192h3v3h-3zM505.5 192h3v3h-3zM493.5 195h3v3h-3zM502.5 195h3v3h-3zM505.5 195h3v3h-3zM493.5 198h3v3h-3zM505.5 198h3v3h-3zM493.5 201h3v3h-3zM505.5 201h3v3h-3zM493.5 204h3v3h-3zM505.5 204h3v3h-3zM511.5 186h3v3h-3zM523.5 186h3v3h-3zM511.5 189h3v3h-3zM520.5 189h3v3h-3zM511.5 192h3v3h-3zM517.5 192h3v3h-3zM511.5 195h3v3h-3zM514.5 195h3v3h-3zM511.5 198h3v3h-3zM517.5 198h3v3h-3zM511.5 201h3v3h-3zM520.5 201h3v3h-3zM511.5 204h3v3h-3zM523.5 204h3v3h-3z" fill="#ff8fc8" shape-rendering="crispEdges"/><path d="M185 222h2v2h-2zM187 222h2v2h-2zM189 222h2v2h-2zM183 224h2v2h-2zM191 224h2v2h-2zM183 226h2v2h-2zM191 226h2v2h-2zM183 228h2v2h-2zM185 228h2v2h-2zM187 228h2v2h-2zM189 228h2v2h-2zM191 228h2v2h-2zM183 230h2v2h-2zM191 230h2v2h-2zM183 232h2v2h-2zM191 232h2v2h-2zM183 234h2v2h-2zM191 234h2v2h-2zM197 222h2v2h-2zM199 222h2v2h-2zM201 222h2v2h-2zM203 222h2v2h-2zM195 224h2v2h-2zM195 226h2v2h-2zM195 228h2v2h-2zM201 228h2v2h-2zM203 228h2v2h-2zM195 230h2v2h-2zM203 230h2v2h-2zM195 232h2v2h-2zM203 232h2v2h-2zM197 234h2v2h-2zM199 234h2v2h-2zM201 234h2v2h-2zM203 234h2v2h-2zM207 222h2v2h-2zM209 222h2v2h-2zM211 222h2v2h-2zM213 222h2v2h-2zM215 222h2v2h-2zM207 224h2v2h-2zM207 226h2v2h-2zM207 228h2v2h-2zM209 228h2v2h-2zM211 228h2v2h-2zM213 228h2v2h-2zM207 230h2v2h-2zM207 232h2v2h-2zM207 234h2v2h-2zM209 234h2v2h-2zM211 234h2v2h-2zM213 234h2v2h-2zM215 234h2v2h-2zM219 222h2v2h-2zM227 222h2v2h-2zM219 224h2v2h-2zM221 224h2v2h-2zM227 224h2v2h-2zM219 226h2v2h-2zM223 226h2v2h-2zM227 226h2v2h-2zM219 228h2v2h-2zM225 228h2v2h-2zM227 228h2v2h-2zM219 230h2v2h-2zM227 230h2v2h-2zM219 232h2v2h-2zM227 232h2v2h-2zM219 234h2v2h-2zM227 234h2v2h-2zM231 222h2v2h-2zM233 222h2v2h-2zM235 222h2v2h-2zM237 222h2v2h-2zM239 222h2v2h-2zM235 224h2v2h-2zM235 226h2v2h-2zM235 228h2v2h-2zM235 230h2v2h-2zM235 232h2v2h-2zM235 234h2v2h-2zM245 222h2v2h-2zM247 222h2v2h-2zM249 222h2v2h-2zM251 222h2v2h-2zM243 224h2v2h-2zM243 226h2v2h-2zM245 228h2v2h-2zM247 228h2v2h-2zM249 228h2v2h-2zM251 230h2v2h-2zM251 232h2v2h-2zM243 234h2v2h-2zM245 234h2v2h-2zM247 234h2v2h-2zM249 234h2v2h-2zM263 228h2v2h-2zM275 222h2v2h-2zM283 222h2v2h-2zM275 224h2v2h-2zM277 224h2v2h-2zM281 224h2v2h-2zM283 224h2v2h-2zM275 226h2v2h-2zM279 226h2v2h-2zM283 226h2v2h-2zM275 228h2v2h-2zM279 228h2v2h-2zM283 228h2v2h-2zM275 230h2v2h-2zM283 230h2v2h-2zM275 232h2v2h-2zM283 232h2v2h-2zM275 234h2v2h-2zM283 234h2v2h-2zM287 222h2v2h-2zM289 222h2v2h-2zM291 222h2v2h-2zM293 222h2v2h-2zM295 222h2v2h-2zM287 224h2v2h-2zM287 226h2v2h-2zM287 228h2v2h-2zM289 228h2v2h-2zM291 228h2v2h-2zM293 228h2v2h-2zM287 230h2v2h-2zM287 232h2v2h-2zM287 234h2v2h-2zM289 234h2v2h-2zM291 234h2v2h-2zM293 234h2v2h-2zM295 234h2v2h-2zM299 222h2v2h-2zM307 222h2v2h-2zM299 224h2v2h-2zM301 224h2v2h-2zM305 224h2v2h-2zM307 224h2v2h-2zM299 226h2v2h-2zM303 226h2v2h-2zM307 226h2v2h-2zM299 228h2v2h-2zM303 228h2v2h-2zM307 228h2v2h-2zM299 230h2v2h-2zM307 230h2v2h-2zM299 232h2v2h-2zM307 232h2v2h-2zM299 234h2v2h-2zM307 234h2v2h-2zM313 222h2v2h-2zM315 222h2v2h-2zM317 222h2v2h-2zM311 224h2v2h-2zM319 224h2v2h-2zM311 226h2v2h-2zM319 226h2v2h-2zM311 228h2v2h-2zM319 228h2v2h-2zM311 230h2v2h-2zM319 230h2v2h-2zM311 232h2v2h-2zM319 232h2v2h-2zM313 234h2v2h-2zM315 234h2v2h-2zM317 234h2v2h-2zM323 222h2v2h-2zM325 222h2v2h-2zM327 222h2v2h-2zM329 222h2v2h-2zM323 224h2v2h-2zM331 224h2v2h-2zM323 226h2v2h-2zM331 226h2v2h-2zM323 228h2v2h-2zM325 228h2v2h-2zM327 228h2v2h-2zM329 228h2v2h-2zM323 230h2v2h-2zM327 230h2v2h-2zM323 232h2v2h-2zM329 232h2v2h-2zM323 234h2v2h-2zM331 234h2v2h-2zM335 222h2v2h-2zM343 222h2v2h-2zM335 224h2v2h-2zM343 224h2v2h-2zM337 226h2v2h-2zM341 226h2v2h-2zM339 228h2v2h-2zM339 230h2v2h-2zM339 232h2v2h-2zM339 234h2v2h-2zM355 228h2v2h-2zM367 222h2v2h-2zM369 222h2v2h-2zM371 222h2v2h-2zM373 222h2v2h-2zM375 222h2v2h-2zM371 224h2v2h-2zM371 226h2v2h-2zM371 228h2v2h-2zM371 230h2v2h-2zM371 232h2v2h-2zM371 234h2v2h-2zM379 222h2v2h-2zM387 222h2v2h-2zM379 224h2v2h-2zM387 224h2v2h-2zM379 226h2v2h-2zM387 226h2v2h-2zM379 228h2v2h-2zM381 228h2v2h-2zM383 228h2v2h-2zM385 228h2v2h-2zM387 228h2v2h-2zM379 230h2v2h-2zM387 230h2v2h-2zM379 232h2v2h-2zM387 232h2v2h-2zM379 234h2v2h-2zM387 234h2v2h-2zM391 222h2v2h-2zM393 222h2v2h-2zM395 222h2v2h-2zM397 222h2v2h-2zM399 222h2v2h-2zM395 224h2v2h-2zM395 226h2v2h-2zM395 228h2v2h-2zM395 230h2v2h-2zM395 232h2v2h-2zM391 234h2v2h-2zM393 234h2v2h-2zM395 234h2v2h-2zM397 234h2v2h-2zM399 234h2v2h-2zM403 222h2v2h-2zM411 222h2v2h-2zM403 224h2v2h-2zM405 224h2v2h-2zM411 224h2v2h-2zM403 226h2v2h-2zM407 226h2v2h-2zM411 226h2v2h-2zM403 228h2v2h-2zM409 228h2v2h-2zM411 228h2v2h-2zM403 230h2v2h-2zM411 230h2v2h-2zM403 232h2v2h-2zM411 232h2v2h-2zM403 234h2v2h-2zM411 234h2v2h-2zM417 222h2v2h-2zM419 222h2v2h-2zM421 222h2v2h-2zM423 222h2v2h-2zM415 224h2v2h-2zM415 226h2v2h-2zM415 228h2v2h-2zM421 228h2v2h-2zM423 228h2v2h-2zM415 230h2v2h-2zM423 230h2v2h-2zM415 232h2v2h-2zM423 232h2v2h-2zM417 234h2v2h-2zM419 234h2v2h-2zM421 234h2v2h-2zM423 234h2v2h-2zM429 222h2v2h-2zM431 222h2v2h-2zM433 222h2v2h-2zM435 222h2v2h-2zM427 224h2v2h-2zM427 226h2v2h-2zM429 228h2v2h-2zM431 228h2v2h-2zM433 228h2v2h-2zM435 230h2v2h-2zM435 232h2v2h-2zM427 234h2v2h-2zM429 234h2v2h-2zM431 234h2v2h-2zM433 234h2v2h-2zM447 222h2v2h-2zM449 222h2v2h-2zM451 222h2v2h-2zM453 222h2v2h-2zM455 222h2v2h-2zM451 224h2v2h-2zM451 226h2v2h-2zM451 228h2v2h-2zM451 230h2v2h-2zM451 232h2v2h-2zM451 234h2v2h-2zM459 222h2v2h-2zM467 222h2v2h-2zM459 224h2v2h-2zM467 224h2v2h-2zM459 226h2v2h-2zM467 226h2v2h-2zM459 228h2v2h-2zM461 228h2v2h-2zM463 228h2v2h-2zM465 228h2v2h-2zM467 228h2v2h-2zM459 230h2v2h-2zM467 230h2v2h-2zM459 232h2v2h-2zM467 232h2v2h-2zM459 234h2v2h-2zM467 234h2v2h-2zM473 222h2v2h-2zM475 222h2v2h-2zM477 222h2v2h-2zM471 224h2v2h-2zM479 224h2v2h-2zM471 226h2v2h-2zM479 226h2v2h-2zM471 228h2v2h-2zM473 228h2v2h-2zM475 228h2v2h-2zM477 228h2v2h-2zM479 228h2v2h-2zM471 230h2v2h-2zM479 230h2v2h-2zM471 232h2v2h-2zM479 232h2v2h-2zM471 234h2v2h-2zM479 234h2v2h-2zM483 222h2v2h-2zM485 222h2v2h-2zM487 222h2v2h-2zM489 222h2v2h-2zM491 222h2v2h-2zM487 224h2v2h-2zM487 226h2v2h-2zM487 228h2v2h-2zM487 230h2v2h-2zM487 232h2v2h-2zM487 234h2v2h-2zM503 222h2v2h-2zM505 222h2v2h-2zM507 222h2v2h-2zM509 222h2v2h-2zM511 222h2v2h-2zM503 224h2v2h-2zM503 226h2v2h-2zM503 228h2v2h-2zM505 228h2v2h-2zM507 228h2v2h-2zM509 228h2v2h-2zM503 230h2v2h-2zM503 232h2v2h-2zM503 234h2v2h-2zM515 222h2v2h-2zM517 222h2v2h-2zM519 222h2v2h-2zM521 222h2v2h-2zM523 222h2v2h-2zM515 224h2v2h-2zM515 226h2v2h-2zM515 228h2v2h-2zM517 228h2v2h-2zM519 228h2v2h-2zM521 228h2v2h-2zM515 230h2v2h-2zM515 232h2v2h-2zM515 234h2v2h-2zM517 234h2v2h-2zM519 234h2v2h-2zM521 234h2v2h-2zM523 234h2v2h-2zM527 222h2v2h-2zM529 222h2v2h-2zM531 222h2v2h-2zM533 222h2v2h-2zM535 222h2v2h-2zM527 224h2v2h-2zM527 226h2v2h-2zM527 228h2v2h-2zM529 228h2v2h-2zM531 228h2v2h-2zM533 228h2v2h-2zM527 230h2v2h-2zM527 232h2v2h-2zM527 234h2v2h-2zM529 234h2v2h-2zM531 234h2v2h-2zM533 234h2v2h-2zM535 234h2v2h-2zM539 222h2v2h-2zM539 224h2v2h-2zM539 226h2v2h-2zM539 228h2v2h-2zM539 230h2v2h-2zM539 232h2v2h-2zM539 234h2v2h-2zM541 234h2v2h-2zM543 234h2v2h-2zM545 234h2v2h-2zM547 234h2v2h-2zM561 222h2v2h-2zM563 222h2v2h-2zM565 222h2v2h-2zM559 224h2v2h-2zM567 224h2v2h-2zM559 226h2v2h-2zM567 226h2v2h-2zM559 228h2v2h-2zM561 228h2v2h-2zM563 228h2v2h-2zM565 228h2v2h-2zM567 228h2v2h-2zM559 230h2v2h-2zM567 230h2v2h-2zM559 232h2v2h-2zM567 232h2v2h-2zM559 234h2v2h-2zM567 234h2v2h-2zM579 222h2v2h-2zM579 224h2v2h-2zM579 226h2v2h-2zM579 228h2v2h-2zM579 230h2v2h-2zM579 232h2v2h-2zM579 234h2v2h-2zM581 234h2v2h-2zM583 234h2v2h-2zM585 234h2v2h-2zM587 234h2v2h-2zM591 222h2v2h-2zM593 222h2v2h-2zM595 222h2v2h-2zM597 222h2v2h-2zM599 222h2v2h-2zM595 224h2v2h-2zM595 226h2v2h-2zM595 228h2v2h-2zM595 230h2v2h-2zM595 232h2v2h-2zM591 234h2v2h-2zM593 234h2v2h-2zM595 234h2v2h-2zM597 234h2v2h-2zM599 234h2v2h-2zM603 222h2v2h-2zM605 222h2v2h-2zM607 222h2v2h-2zM609 222h2v2h-2zM611 222h2v2h-2zM607 224h2v2h-2zM607 226h2v2h-2zM607 228h2v2h-2zM607 230h2v2h-2zM607 232h2v2h-2zM607 234h2v2h-2zM615 222h2v2h-2zM617 222h2v2h-2zM619 222h2v2h-2zM621 222h2v2h-2zM623 222h2v2h-2zM619 224h2v2h-2zM619 226h2v2h-2zM619 228h2v2h-2zM619 230h2v2h-2zM619 232h2v2h-2zM619 234h2v2h-2zM627 222h2v2h-2zM627 224h2v2h-2zM627 226h2v2h-2zM627 228h2v2h-2zM627 230h2v2h-2zM627 232h2v2h-2zM627 234h2v2h-2zM629 234h2v2h-2zM631 234h2v2h-2zM633 234h2v2h-2zM635 234h2v2h-2zM639 222h2v2h-2zM641 222h2v2h-2zM643 222h2v2h-2zM645 222h2v2h-2zM647 222h2v2h-2zM639 224h2v2h-2zM639 226h2v2h-2zM639 228h2v2h-2zM641 228h2v2h-2zM643 228h2v2h-2zM645 228h2v2h-2zM639 230h2v2h-2zM639 232h2v2h-2zM639 234h2v2h-2zM641 234h2v2h-2zM643 234h2v2h-2zM645 234h2v2h-2zM647 234h2v2h-2zM661 222h2v2h-2zM663 222h2v2h-2zM665 222h2v2h-2zM659 224h2v2h-2zM667 224h2v2h-2zM659 226h2v2h-2zM667 226h2v2h-2zM659 228h2v2h-2zM661 228h2v2h-2zM663 228h2v2h-2zM665 228h2v2h-2zM667 228h2v2h-2zM659 230h2v2h-2zM667 230h2v2h-2zM659 232h2v2h-2zM667 232h2v2h-2zM659 234h2v2h-2zM667 234h2v2h-2zM671 222h2v2h-2zM671 224h2v2h-2zM671 226h2v2h-2zM671 228h2v2h-2zM671 230h2v2h-2zM671 232h2v2h-2zM671 234h2v2h-2zM673 234h2v2h-2zM675 234h2v2h-2zM677 234h2v2h-2zM679 234h2v2h-2zM683 222h2v2h-2zM685 222h2v2h-2zM687 222h2v2h-2zM689 222h2v2h-2zM691 222h2v2h-2zM687 224h2v2h-2zM687 226h2v2h-2zM687 228h2v2h-2zM687 230h2v2h-2zM687 232h2v2h-2zM683 234h2v2h-2zM685 234h2v2h-2zM687 234h2v2h-2zM689 234h2v2h-2zM691 234h2v2h-2zM695 222h2v2h-2zM703 222h2v2h-2zM695 224h2v2h-2zM703 224h2v2h-2zM695 226h2v2h-2zM703 226h2v2h-2zM695 228h2v2h-2zM703 228h2v2h-2zM695 230h2v2h-2zM703 230h2v2h-2zM697 232h2v2h-2zM701 232h2v2h-2zM699 234h2v2h-2zM707 222h2v2h-2zM709 222h2v2h-2zM711 222h2v2h-2zM713 222h2v2h-2zM715 222h2v2h-2zM707 224h2v2h-2zM707 226h2v2h-2zM707 228h2v2h-2zM709 228h2v2h-2zM711 228h2v2h-2zM713 228h2v2h-2zM707 230h2v2h-2zM707 232h2v2h-2zM707 234h2v2h-2zM709 234h2v2h-2zM711 234h2v2h-2zM713 234h2v2h-2zM715 234h2v2h-2z" fill="#ffd21f" shape-rendering="crispEdges"/><g class="pk" style="animation-delay:0s"><path d="M80 272.1h5v5h-5zM85 272.1h5v5h-5zM90 272.1h5v5h-5zM95 272.1h5v5h-5zM100 272.1h5v5h-5zM105 272.1h5v5h-5zM75 277.1h5v5h-5zM110 277.1h5v5h-5zM70 282.1h5v5h-5zM115 282.1h5v5h-5zM70 287.1h5v5h-5zM85 287.1h5v5h-5zM100 287.1h5v5h-5zM115 287.1h5v5h-5zM70 292.1h5v5h-5zM85 292.1h5v5h-5zM100 292.1h5v5h-5zM115 292.1h5v5h-5zM70 297.1h5v5h-5zM115 297.1h5v5h-5zM70 302.1h5v5h-5zM115 302.1h5v5h-5zM70 307.1h5v5h-5zM90 307.1h5v5h-5zM95 307.1h5v5h-5zM115 307.1h5v5h-5zM75 312.1h5v5h-5zM80 312.1h5v5h-5zM85 312.1h5v5h-5zM100 312.1h5v5h-5zM105 312.1h5v5h-5zM110 312.1h5v5h-5z" fill="#241a45" shape-rendering="crispEdges"/><path d="M80 277.1h5v5h-5zM85 277.1h5v5h-5zM90 277.1h5v5h-5zM95 277.1h5v5h-5zM100 277.1h5v5h-5zM105 277.1h5v5h-5zM75 282.1h5v5h-5zM80 282.1h5v5h-5zM85 282.1h5v5h-5zM90 282.1h5v5h-5zM95 282.1h5v5h-5zM100 282.1h5v5h-5zM105 282.1h5v5h-5zM110 282.1h5v5h-5zM75 287.1h5v5h-5zM80 287.1h5v5h-5zM90 287.1h5v5h-5zM95 287.1h5v5h-5zM105 287.1h5v5h-5zM110 287.1h5v5h-5zM75 292.1h5v5h-5zM80 292.1h5v5h-5zM90 292.1h5v5h-5zM95 292.1h5v5h-5zM105 292.1h5v5h-5zM110 292.1h5v5h-5zM75 297.1h5v5h-5zM85 297.1h5v5h-5zM90 297.1h5v5h-5zM95 297.1h5v5h-5zM100 297.1h5v5h-5zM110 297.1h5v5h-5zM75 302.1h5v5h-5zM80 302.1h5v5h-5zM85 302.1h5v5h-5zM90 302.1h5v5h-5zM95 302.1h5v5h-5zM100 302.1h5v5h-5zM105 302.1h5v5h-5zM110 302.1h5v5h-5zM75 307.1h5v5h-5zM80 307.1h5v5h-5zM85 307.1h5v5h-5zM100 307.1h5v5h-5zM105 307.1h5v5h-5zM110 307.1h5v5h-5z" fill="#e9e3ff" shape-rendering="crispEdges"/><path d="M80 297.1h5v5h-5zM105 297.1h5v5h-5z" fill="#ff9cc8" shape-rendering="crispEdges"/></g><g class="pk" style="animation-delay:-1.1s"><path d="M715 272.1h5v5h-5zM770 272.1h5v5h-5zM720 277.1h5v5h-5zM765 277.1h5v5h-5zM715 282.1h5v5h-5zM720 282.1h5v5h-5zM765 282.1h5v5h-5zM770 282.1h5v5h-5zM715 292.1h5v5h-5zM770 292.1h5v5h-5z" fill="#ff5d8f" shape-rendering="crispEdges"/><path d="M730 277.1h5v5h-5zM735 277.1h5v5h-5zM740 277.1h5v5h-5zM745 277.1h5v5h-5zM750 277.1h5v5h-5zM755 277.1h5v5h-5zM725 282.1h5v5h-5zM760 282.1h5v5h-5zM720 287.1h5v5h-5zM765 287.1h5v5h-5zM720 292.1h5v5h-5zM730 292.1h5v5h-5zM755 292.1h5v5h-5zM765 292.1h5v5h-5zM720 297.1h5v5h-5zM765 297.1h5v5h-5zM720 302.1h5v5h-5zM740 302.1h5v5h-5zM745 302.1h5v5h-5zM765 302.1h5v5h-5zM725 307.1h5v5h-5zM760 307.1h5v5h-5zM725 312.1h5v5h-5zM730 312.1h5v5h-5zM755 312.1h5v5h-5zM760 312.1h5v5h-5z" fill="#3a1430" shape-rendering="crispEdges"/><path d="M730 282.1h5v5h-5zM735 282.1h5v5h-5zM740 282.1h5v5h-5zM745 282.1h5v5h-5zM750 282.1h5v5h-5zM755 282.1h5v5h-5zM725 287.1h5v5h-5zM730 287.1h5v5h-5zM735 287.1h5v5h-5zM740 287.1h5v5h-5zM745 287.1h5v5h-5zM750 287.1h5v5h-5zM755 287.1h5v5h-5zM760 287.1h5v5h-5zM725 292.1h5v5h-5zM735 292.1h5v5h-5zM740 292.1h5v5h-5zM745 292.1h5v5h-5zM750 292.1h5v5h-5zM760 292.1h5v5h-5zM725 297.1h5v5h-5zM730 297.1h5v5h-5zM735 297.1h5v5h-5zM740 297.1h5v5h-5zM745 297.1h5v5h-5zM750 297.1h5v5h-5zM755 297.1h5v5h-5zM760 297.1h5v5h-5zM725 302.1h5v5h-5zM730 302.1h5v5h-5zM735 302.1h5v5h-5zM750 302.1h5v5h-5zM755 302.1h5v5h-5zM760 302.1h5v5h-5zM730 307.1h5v5h-5zM735 307.1h5v5h-5zM740 307.1h5v5h-5zM745 307.1h5v5h-5zM750 307.1h5v5h-5zM755 307.1h5v5h-5z" fill="#ffb3c9" shape-rendering="crispEdges"/></g><g class="pk" style="animation-delay:-2.2s"><path d="M795 272.1h5v5h-5zM840 272.1h5v5h-5zM795 277.1h5v5h-5zM800 277.1h5v5h-5zM835 277.1h5v5h-5zM840 277.1h5v5h-5zM795 282.1h5v5h-5zM805 282.1h5v5h-5zM810 282.1h5v5h-5zM815 282.1h5v5h-5zM820 282.1h5v5h-5zM825 282.1h5v5h-5zM830 282.1h5v5h-5zM840 282.1h5v5h-5zM790 287.1h5v5h-5zM845 287.1h5v5h-5zM790 292.1h5v5h-5zM800 292.1h5v5h-5zM835 292.1h5v5h-5zM845 292.1h5v5h-5zM790 297.1h5v5h-5zM845 297.1h5v5h-5zM795 302.1h5v5h-5zM840 302.1h5v5h-5zM795 307.1h5v5h-5zM840 307.1h5v5h-5zM800 312.1h5v5h-5zM805 312.1h5v5h-5zM830 312.1h5v5h-5zM835 312.1h5v5h-5z" fill="#1b1f24" shape-rendering="crispEdges"/><path d="M800 282.1h5v5h-5zM835 282.1h5v5h-5zM795 287.1h5v5h-5zM800 287.1h5v5h-5zM805 287.1h5v5h-5zM810 287.1h5v5h-5zM815 287.1h5v5h-5zM820 287.1h5v5h-5zM825 287.1h5v5h-5zM830 287.1h5v5h-5zM835 287.1h5v5h-5zM840 287.1h5v5h-5zM795 292.1h5v5h-5zM805 292.1h5v5h-5zM810 292.1h5v5h-5zM815 292.1h5v5h-5zM820 292.1h5v5h-5zM825 292.1h5v5h-5zM830 292.1h5v5h-5zM840 292.1h5v5h-5zM795 297.1h5v5h-5zM800 297.1h5v5h-5zM805 297.1h5v5h-5zM810 297.1h5v5h-5zM825 297.1h5v5h-5zM830 297.1h5v5h-5zM835 297.1h5v5h-5zM840 297.1h5v5h-5zM800 302.1h5v5h-5zM805 302.1h5v5h-5zM810 302.1h5v5h-5zM815 302.1h5v5h-5zM820 302.1h5v5h-5zM825 302.1h5v5h-5zM830 302.1h5v5h-5zM835 302.1h5v5h-5zM800 307.1h5v5h-5zM805 307.1h5v5h-5zM810 307.1h5v5h-5zM815 307.1h5v5h-5zM820 307.1h5v5h-5zM825 307.1h5v5h-5zM830 307.1h5v5h-5zM835 307.1h5v5h-5z" fill="#9aa4ad" shape-rendering="crispEdges"/><path d="M815 297.1h5v5h-5zM820 297.1h5v5h-5z" fill="#f08aa8" shape-rendering="crispEdges"/></g></svg>
