<svg xmlns="http://www.w3.org/2000/svg" width="900" height="298" viewBox="0 0 900 298" role="img" aria-label="Inventory: python, langgraph, fastapi, claude api, mcp, cockroachdb, postgres, supabase, pinecone, next.js, typescript, tailwind, swift, chrome mv3, docker, cloud run"><rect x="10" y="10" width="884" height="282" fill="#1f1238"/><rect x="4" y="4" width="884" height="282" fill="#fff8e7" stroke="#1f1238" stroke-width="4"/><rect x="31.0" y="30" width="196" height="46" fill="#f1ead8" stroke="#1f1238" stroke-width="3"/><rect x="41.0" y="45" width="16" height="16" fill="#9fd8ff" stroke="#1f1238" stroke-width="2"/><path d="M69 46h2v2h-2zM71 46h2v2h-2zM73 46h2v2h-2zM75 46h2v2h-2zM69 48h2v2h-2zM77 48h2v2h-2zM69 50h2v2h-2zM77 50h2v2h-2zM69 52h2v2h-2zM71 52h2v2h-2zM73 52h2v2h-2zM75 52h2v2h-2zM69 54h2v2h-2zM69 56h2v2h-2zM69 58h2v2h-2zM81 46h2v2h-2zM89 46h2v2h-2zM81 48h2v2h-2zM89 48h2v2h-2zM83 50h2v2h-2zM87 50h2v2h-2zM85 52h2v2h-2zM85 54h2v2h-2zM85 56h2v2h-2zM85 58h2v2h-2zM93 46h2v2h-2zM95 46h2v2h-2zM97 46h2v2h-2zM99 46h2v2h-2zM101 46h2v2h-2zM97 48h2v2h-2zM97 50h2v2h-2zM97 52h2v2h-2zM97 54h2v2h-2zM97 56h2v2h-2zM97 58h2v2h-2zM105 46h2v2h-2zM113 46h2v2h-2zM105 48h2v2h-2zM113 48h2v2h-2zM105 50h2v2h-2zM113 50h2v2h-2zM105 52h2v2h-2zM107 52h2v2h-2zM109 52h2v2h-2zM111 52h2v2h-2zM113 52h2v2h-2zM105 54h2v2h-2zM113 54h2v2h-2zM105 56h2v2h-2zM113 56h2v2h-2zM105 58h2v2h-2zM113 58h2v2h-2zM119 46h2v2h-2zM121 46h2v2h-2zM123 46h2v2h-2zM117 48h2v2h-2zM125 48h2v2h-2zM117 50h2v2h-2zM125 50h2v2h-2zM117 52h2v2h-2zM125 52h2v2h-2zM117 54h2v2h-2zM125 54h2v2h-2zM117 56h2v2h-2zM125 56h2v2h-2zM119 58h2v2h-2zM121 58h2v2h-2zM123 58h2v2h-2zM129 46h2v2h-2zM137 46h2v2h-2zM129 48h2v2h-2zM131 48h2v2h-2zM137 48h2v2h-2zM129 50h2v2h-2zM133 50h2v2h-2zM137 50h2v2h-2zM129 52h2v2h-2zM135 52h2v2h-2zM137 52h2v2h-2zM129 54h2v2h-2zM137 54h2v2h-2zM129 56h2v2h-2zM137 56h2v2h-2zM129 58h2v2h-2zM137 58h2v2h-2z" fill="#1f1238" shape-rendering="crispEdges"/><rect x="241.0" y="30" width="196" height="46" fill="#f1ead8" stroke="#1f1238" stroke-width="3"/><rect x="251.0" y="45" width="16" height="16" fill="#ffd21f" stroke="#1f1238" stroke-width="2"/><path d="M279 46h2v2h-2zM279 48h2v2h-2zM279 50h2v2h-2zM279 52h2v2h-2zM279 54h2v2h-2zM279 56h2v2h-2zM279 58h2v2h-2zM281 58h2v2h-2zM283 58h2v2h-2zM285 58h2v2h-2zM287 58h2v2h-2zM293 46h2v2h-2zM295 46h2v2h-2zM297 46h2v2h-2zM291 48h2v2h-2zM299 48h2v2h-2zM291 50h2v2h-2zM299 50h2v2h-2zM291 52h2v2h-2zM293 52h2v2h-2zM295 52h2v2h-2zM297 52h2v2h-2zM299 52h2v2h-2zM291 54h2v2h-2zM299 54h2v2h-2zM291 56h2v2h-2zM299 56h2v2h-2zM291 58h2v2h-2zM299 58h2v2h-2zM303 46h2v2h-2zM311 46h2v2h-2zM303 48h2v2h-2zM305 48h2v2h-2zM311 48h2v2h-2zM303 50h2v2h-2zM307 50h2v2h-2zM311 50h2v2h-2zM303 52h2v2h-2zM309 52h2v2h-2zM311 52h2v2h-2zM303 54h2v2h-2zM311 54h2v2h-2zM303 56h2v2h-2zM311 56h2v2h-2zM303 58h2v2h-2zM311 58h2v2h-2zM317 46h2v2h-2zM319 46h2v2h-2zM321 46h2v2h-2zM323 46h2v2h-2zM315 48h2v2h-2zM315 50h2v2h-2zM315 52h2v2h-2zM321 52h2v2h-2zM323 52h2v2h-2zM315 54h2v2h-2zM323 54h2v2h-2zM315 56h2v2h-2zM323 56h2v2h-2zM317 58h2v2h-2zM319 58h2v2h-2zM321 58h2v2h-2zM323 58h2v2h-2zM329 46h2v2h-2zM331 46h2v2h-2zM333 46h2v2h-2zM335 46h2v2h-2zM327 48h2v2h-2zM327 50h2v2h-2zM327 52h2v2h-2zM333 52h2v2h-2zM335 52h2v2h-2zM327 54h2v2h-2zM335 54h2v2h-2zM327 56h2v2h-2zM335 56h2v2h-2zM329 58h2v2h-2zM331 58h2v2h-2zM333 58h2v2h-2zM335 58h2v2h-2zM339 46h2v2h-2zM341 46h2v2h-2zM343 46h2v2h-2zM345 46h2v2h-2zM339 48h2v2h-2zM347 48h2v2h-2zM339 50h2v2h-2zM347 50h2v2h-2zM339 52h2v2h-2zM341 52h2v2h-2zM343 52h2v2h-2zM345 52h2v2h-2zM339 54h2v2h-2zM343 54h2v2h-2zM339 56h2v2h-2zM345 56h2v2h-2zM339 58h2v2h-2zM347 58h2v2h-2zM353 46h2v2h-2zM355 46h2v2h-2zM357 46h2v2h-2zM351 48h2v2h-2zM359 48h2v2h-2zM351 50h2v2h-2zM359 50h2v2h-2zM351 52h2v2h-2zM353 52h2v2h-2zM355 52h2v2h-2zM357 52h2v2h-2zM359 52h2v2h-2zM351 54h2v2h-2zM359 54h2v2h-2zM351 56h2v2h-2zM359 56h2v2h-2zM351 58h2v2h-2zM359 58h2v2h-2zM363 46h2v2h-2zM365 46h2v2h-2zM367 46h2v2h-2zM369 46h2v2h-2zM363 48h2v2h-2zM371 48h2v2h-2zM363 50h2v2h-2zM371 50h2v2h-2zM363 52h2v2h-2zM365 52h2v2h-2zM367 52h2v2h-2zM369 52h2v2h-2zM363 54h2v2h-2zM363 56h2v2h-2zM363 58h2v2h-2zM375 46h2v2h-2zM383 46h2v2h-2zM375 48h2v2h-2zM383 48h2v2h-2zM375 50h2v2h-2zM383 50h2v2h-2zM375 52h2v2h-2zM377 52h2v2h-2zM379 52h2v2h-2zM381 52h2v2h-2zM383 52h2v2h-2zM375 54h2v2h-2zM383 54h2v2h-2zM375 56h2v2h-2zM383 56h2v2h-2zM375 58h2v2h-2zM383 58h2v2h-2z" fill="#1f1238" shape-rendering="crispEdges"/><rect x="451.0" y="30" width="196" height="46" fill="#f1ead8" stroke="#1f1238" stroke-width="3"/><rect x="461.0" y="45" width="16" height="16" fill="#ff8fc8" stroke="#1f1238" stroke-width="2"/><path d="M489 46h2v2h-2zM491 46h2v2h-2zM493 46h2v2h-2zM495 46h2v2h-2zM497 46h2v2h-2zM489 48h2v2h-2zM489 50h2v2h-2zM489 52h2v2h-2zM491 52h2v2h-2zM493 52h2v2h-2zM495 52h2v2h-2zM489 54h2v2h-2zM489 56h2v2h-2zM489 58h2v2h-2zM503 46h2v2h-2zM505 46h2v2h-2zM507 46h2v2h-2zM501 48h2v2h-2zM509 48h2v2h-2zM501 50h2v2h-2zM509 50h2v2h-2zM501 52h2v2h-2zM503 52h2v2h-2zM505 52h2v2h-2zM507 52h2v2h-2zM509 52h2v2h-2zM501 54h2v2h-2zM509 54h2v2h-2zM501 56h2v2h-2zM509 56h2v2h-2zM501 58h2v2h-2zM509 58h2v2h-2zM515 46h2v2h-2zM517 46h2v2h-2zM519 46h2v2h-2zM521 46h2v2h-2zM513 48h2v2h-2zM513 50h2v2h-2zM515 52h2v2h-2zM517 52h2v2h-2zM519 52h2v2h-2zM521 54h2v2h-2zM521 56h2v2h-2zM513 58h2v2h-2zM515 58h2v2h-2zM517 58h2v2h-2zM519 58h2v2h-2zM525 46h2v2h-2zM527 46h2v2h-2zM529 46h2v2h-2zM531 46h2v2h-2zM533 46h2v2h-2zM529 48h2v2h-2zM529 50h2v2h-2zM529 52h2v2h-2zM529 54h2v2h-2zM529 56h2v2h-2zM529 58h2v2h-2zM539 46h2v2h-2zM541 46h2v2h-2zM543 46h2v2h-2zM537 48h2v2h-2zM545 48h2v2h-2zM537 50h2v2h-2zM545 50h2v2h-2zM537 52h2v2h-2zM539 52h2v2h-2zM541 52h2v2h-2zM543 52h2v2h-2zM545 52h2v2h-2zM537 54h2v2h-2zM545 54h2v2h-2zM537 56h2v2h-2zM545 56h2v2h-2zM537 58h2v2h-2zM545 58h2v2h-2zM549 46h2v2h-2zM551 46h2v2h-2zM553 46h2v2h-2zM555 46h2v2h-2zM549 48h2v2h-2zM557 48h2v2h-2zM549 50h2v2h-2zM557 50h2v2h-2zM549 52h2v2h-2zM551 52h2v2h-2zM553 52h2v2h-2zM555 52h2v2h-2zM549 54h2v2h-2zM549 56h2v2h-2zM549 58h2v2h-2zM561 46h2v2h-2zM563 46h2v2h-2zM565 46h2v2h-2zM567 46h2v2h-2zM569 46h2v2h-2zM565 48h2v2h-2zM565 50h2v2h-2zM565 52h2v2h-2zM565 54h2v2h-2zM565 56h2v2h-2zM561 58h2v2h-2zM563 58h2v2h-2zM565 58h2v2h-2zM567 58h2v2h-2zM569 58h2v2h-2z" fill="#1f1238" shape-rendering="crispEdges"/><rect x="661.0" y="30" width="196" height="46" fill="#f1ead8" stroke="#1f1238" stroke-width="3"/><rect x="671.0" y="45" width="16" height="16" fill="#9ff0c4" stroke="#1f1238" stroke-width="2"/><path d="M701 46h2v2h-2zM703 46h2v2h-2zM705 46h2v2h-2zM707 46h2v2h-2zM699 48h2v2h-2zM699 50h2v2h-2zM699 52h2v2h-2zM699 54h2v2h-2zM699 56h2v2h-2zM701 58h2v2h-2zM703 58h2v2h-2zM705 58h2v2h-2zM707 58h2v2h-2zM711 46h2v2h-2zM711 48h2v2h-2zM711 50h2v2h-2zM711 52h2v2h-2zM711 54h2v2h-2zM711 56h2v2h-2zM711 58h2v2h-2zM713 58h2v2h-2zM715 58h2v2h-2zM717 58h2v2h-2zM719 58h2v2h-2zM725 46h2v2h-2zM727 46h2v2h-2zM729 46h2v2h-2zM723 48h2v2h-2zM731 48h2v2h-2zM723 50h2v2h-2zM731 50h2v2h-2zM723 52h2v2h-2zM725 52h2v2h-2zM727 52h2v2h-2zM729 52h2v2h-2zM731 52h2v2h-2zM723 54h2v2h-2zM731 54h2v2h-2zM723 56h2v2h-2zM731 56h2v2h-2zM723 58h2v2h-2zM731 58h2v2h-2zM735 46h2v2h-2zM743 46h2v2h-2zM735 48h2v2h-2zM743 48h2v2h-2zM735 50h2v2h-2zM743 50h2v2h-2zM735 52h2v2h-2zM743 52h2v2h-2zM735 54h2v2h-2zM743 54h2v2h-2zM735 56h2v2h-2zM743 56h2v2h-2zM737 58h2v2h-2zM739 58h2v2h-2zM741 58h2v2h-2zM747 46h2v2h-2zM749 46h2v2h-2zM751 46h2v2h-2zM753 46h2v2h-2zM747 48h2v2h-2zM755 48h2v2h-2zM747 50h2v2h-2zM755 50h2v2h-2zM747 52h2v2h-2zM755 52h2v2h-2zM747 54h2v2h-2zM755 54h2v2h-2zM747 56h2v2h-2zM755 56h2v2h-2zM747 58h2v2h-2zM749 58h2v2h-2zM751 58h2v2h-2zM753 58h2v2h-2zM759 46h2v2h-2zM761 46h2v2h-2zM763 46h2v2h-2zM765 46h2v2h-2zM767 46h2v2h-2zM759 48h2v2h-2zM759 50h2v2h-2zM759 52h2v2h-2zM761 52h2v2h-2zM763 52h2v2h-2zM765 52h2v2h-2zM759 54h2v2h-2zM759 56h2v2h-2zM759 58h2v2h-2zM761 58h2v2h-2zM763 58h2v2h-2zM765 58h2v2h-2zM767 58h2v2h-2zM781 46h2v2h-2zM783 46h2v2h-2zM785 46h2v2h-2zM779 48h2v2h-2zM787 48h2v2h-2zM779 50h2v2h-2zM787 50h2v2h-2zM779 52h2v2h-2zM781 52h2v2h-2zM783 52h2v2h-2zM785 52h2v2h-2zM787 52h2v2h-2zM779 54h2v2h-2zM787 54h2v2h-2zM779 56h2v2h-2zM787 56h2v2h-2zM779 58h2v2h-2zM787 58h2v2h-2zM791 46h2v2h-2zM793 46h2v2h-2zM795 46h2v2h-2zM797 46h2v2h-2zM791 48h2v2h-2zM799 48h2v2h-2zM791 50h2v2h-2zM799 50h2v2h-2zM791 52h2v2h-2zM793 52h2v2h-2zM795 52h2v2h-2zM797 52h2v2h-2zM791 54h2v2h-2zM791 56h2v2h-2zM791 58h2v2h-2zM803 46h2v2h-2zM805 46h2v2h-2zM807 46h2v2h-2zM809 46h2v2h-2zM811 46h2v2h-2zM807 48h2v2h-2zM807 50h2v2h-2zM807 52h2v2h-2zM807 54h2v2h-2zM807 56h2v2h-2zM803 58h2v2h-2zM805 58h2v2h-2zM807 58h2v2h-2zM809 58h2v2h-2zM811 58h2v2h-2z" fill="#1f1238" shape-rendering="crispEdges"/><rect x="31.0" y="90" width="196" height="46" fill="#f1ead8" stroke="#1f1238" stroke-width="3"/><rect x="41.0" y="105" width="16" height="16" fill="#9fd8ff" stroke="#1f1238" stroke-width="2"/><path d="M69 106h2v2h-2zM77 106h2v2h-2zM69 108h2v2h-2zM71 108h2v2h-2zM75 108h2v2h-2zM77 108h2v2h-2zM69 110h2v2h-2zM73 110h2v2h-2zM77 110h2v2h-2zM69 112h2v2h-2zM73 112h2v2h-2zM77 112h2v2h-2zM69 114h2v2h-2zM77 114h2v2h-2zM69 116h2v2h-2zM77 116h2v2h-2zM69 118h2v2h-2zM77 118h2v2h-2zM83 106h2v2h-2zM85 106h2v2h-2zM87 106h2v2h-2zM89 106h2v2h-2zM81 108h2v2h-2zM81 110h2v2h-2zM81 112h2v2h-2zM81 114h2v2h-2zM81 116h2v2h-2zM83 118h2v2h-2zM85 118h2v2h-2zM87 118h2v2h-2zM89 118h2v2h-2zM93 106h2v2h-2zM95 106h2v2h-2zM97 106h2v2h-2zM99 106h2v2h-2zM93 108h2v2h-2zM101 108h2v2h-2zM93 110h2v2h-2zM101 110h2v2h-2zM93 112h2v2h-2zM95 112h2v2h-2zM97 112h2v2h-2zM99 112h2v2h-2zM93 114h2v2h-2zM93 116h2v2h-2zM93 118h2v2h-2z" fill="#1f1238" shape-rendering="crispEdges"/><rect x="241.0" y="90" width="196" height="46" fill="#f1ead8" stroke="#1f1238" stroke-width="3"/><rect x="251.0" y="105" width="16" height="16" fill="#ffd21f" stroke="#1f1238" stroke-width="2"/><path d="M281 106h2v2h-2zM283 106h2v2h-2zM285 106h2v2h-2zM287 106h2v2h-2zM279 108h2v2h-2zM279 110h2v2h-2zM279 112h2v2h-2zM279 114h2v2h-2zM279 116h2v2h-2zM281 118h2v2h-2zM283 118h2v2h-2zM285 118h2v2h-2zM287 118h2v2h-2zM293 106h2v2h-2zM295 106h2v2h-2zM297 106h2v2h-2zM291 108h2v2h-2zM299 108h2v2h-2zM291 110h2v2h-2zM299 110h2v2h-2zM291 112h2v2h-2zM299 112h2v2h-2zM291 114h2v2h-2zM299 114h2v2h-2zM291 116h2v2h-2zM299 116h2v2h-2zM293 118h2v2h-2zM295 118h2v2h-2zM297 118h2v2h-2zM305 106h2v2h-2zM307 106h2v2h-2zM309 106h2v2h-2zM311 106h2v2h-2zM303 108h2v2h-2zM303 110h2v2h-2zM303 112h2v2h-2zM303 114h2v2h-2zM303 116h2v2h-2zM305 118h2v2h-2zM307 118h2v2h-2zM309 118h2v2h-2zM311 118h2v2h-2zM315 106h2v2h-2zM323 106h2v2h-2zM315 108h2v2h-2zM321 108h2v2h-2zM315 110h2v2h-2zM319 110h2v2h-2zM315 112h2v2h-2zM317 112h2v2h-2zM315 114h2v2h-2zM319 114h2v2h-2zM315 116h2v2h-2zM321 116h2v2h-2zM315 118h2v2h-2zM323 118h2v2h-2zM327 106h2v2h-2zM329 106h2v2h-2zM331 106h2v2h-2zM333 106h2v2h-2zM327 108h2v2h-2zM335 108h2v2h-2zM327 110h2v2h-2zM335 110h2v2h-2zM327 112h2v2h-2zM329 112h2v2h-2zM331 112h2v2h-2zM333 112h2v2h-2zM327 114h2v2h-2zM331 114h2v2h-2zM327 116h2v2h-2zM333 116h2v2h-2zM327 118h2v2h-2zM335 118h2v2h-2zM341 106h2v2h-2zM343 106h2v2h-2zM345 106h2v2h-2zM339 108h2v2h-2zM347 108h2v2h-2zM339 110h2v2h-2zM347 110h2v2h-2zM339 112h2v2h-2zM347 112h2v2h-2zM339 114h2v2h-2zM347 114h2v2h-2zM339 116h2v2h-2zM347 116h2v2h-2zM341 118h2v2h-2zM343 118h2v2h-2zM345 118h2v2h-2zM353 106h2v2h-2zM355 106h2v2h-2zM357 106h2v2h-2zM351 108h2v2h-2zM359 108h2v2h-2zM351 110h2v2h-2zM359 110h2v2h-2zM351 112h2v2h-2zM353 112h2v2h-2zM355 112h2v2h-2zM357 112h2v2h-2zM359 112h2v2h-2zM351 114h2v2h-2zM359 114h2v2h-2zM351 116h2v2h-2zM359 116h2v2h-2zM351 118h2v2h-2zM359 118h2v2h-2zM365 106h2v2h-2zM367 106h2v2h-2zM369 106h2v2h-2zM371 106h2v2h-2zM363 108h2v2h-2zM363 110h2v2h-2zM363 112h2v2h-2zM363 114h2v2h-2zM363 116h2v2h-2zM365 118h2v2h-2zM367 118h2v2h-2zM369 118h2v2h-2zM371 118h2v2h-2zM375 106h2v2h-2zM383 106h2v2h-2zM375 108h2v2h-2zM383 108h2v2h-2zM375 110h2v2h-2zM383 110h2v2h-2zM375 112h2v2h-2zM377 112h2v2h-2zM379 112h2v2h-2zM381 112h2v2h-2zM383 112h2v2h-2zM375 114h2v2h-2zM383 114h2v2h-2zM375 116h2v2h-2zM383 116h2v2h-2zM375 118h2v2h-2zM383 118h2v2h-2zM387 106h2v2h-2zM389 106h2v2h-2zM391 106h2v2h-2zM393 106h2v2h-2zM387 108h2v2h-2zM395 108h2v2h-2zM387 110h2v2h-2zM395 110h2v2h-2zM387 112h2v2h-2zM395 112h2v2h-2zM387 114h2v2h-2zM395 114h2v2h-2zM387 116h2v2h-2zM395 116h2v2h-2zM387 118h2v2h-2zM389 118h2v2h-2zM391 118h2v2h-2zM393 118h2v2h-2zM399 106h2v2h-2zM401 106h2v2h-2zM403 106h2v2h-2zM405 106h2v2h-2zM399 108h2v2h-2zM407 108h2v2h-2zM399 110h2v2h-2zM407 110h2v2h-2zM399 112h2v2h-2zM401 112h2v2h-2zM403 112h2v2h-2zM405 112h2v2h-2zM399 114h2v2h-2zM407 114h2v2h-2zM399 116h2v2h-2zM407 116h2v2h-2zM399 118h2v2h-2zM401 118h2v2h-2zM403 118h2v2h-2zM405 118h2v2h-2z" fill="#1f1238" shape-rendering="crispEdges"/><rect x="451.0" y="90" width="196" height="46" fill="#f1ead8" stroke="#1f1238" stroke-width="3"/><rect x="461.0" y="105" width="16" height="16" fill="#ff8fc8" stroke="#1f1238" stroke-width="2"/><path d="M489 106h2v2h-2zM491 106h2v2h-2zM493 106h2v2h-2zM495 106h2v2h-2zM489 108h2v2h-2zM497 108h2v2h-2zM489 110h2v2h-2zM497 110h2v2h-2zM489 112h2v2h-2zM491 112h2v2h-2zM493 112h2v2h-2zM495 112h2v2h-2zM489 114h2v2h-2zM489 116h2v2h-2zM489 118h2v2h-2zM503 106h2v2h-2zM505 106h2v2h-2zM507 106h2v2h-2zM501 108h2v2h-2zM509 108h2v2h-2zM501 110h2v2h-2zM509 110h2v2h-2zM501 112h2v2h-2zM509 112h2v2h-2zM501 114h2v2h-2zM509 114h2v2h-2zM501 116h2v2h-2zM509 116h2v2h-2zM503 118h2v2h-2zM505 118h2v2h-2zM507 118h2v2h-2zM515 106h2v2h-2zM517 106h2v2h-2zM519 106h2v2h-2zM521 106h2v2h-2zM513 108h2v2h-2zM513 110h2v2h-2zM515 112h2v2h-2zM517 112h2v2h-2zM519 112h2v2h-2zM521 114h2v2h-2zM521 116h2v2h-2zM513 118h2v2h-2zM515 118h2v2h-2zM517 118h2v2h-2zM519 118h2v2h-2zM525 106h2v2h-2zM527 106h2v2h-2zM529 106h2v2h-2zM531 106h2v2h-2zM533 106h2v2h-2zM529 108h2v2h-2zM529 110h2v2h-2zM529 112h2v2h-2zM529 114h2v2h-2zM529 116h2v2h-2zM529 118h2v2h-2zM539 106h2v2h-2zM541 106h2v2h-2zM543 106h2v2h-2zM545 106h2v2h-2zM537 108h2v2h-2zM537 110h2v2h-2zM537 112h2v2h-2zM543 112h2v2h-2zM545 112h2v2h-2zM537 114h2v2h-2zM545 114h2v2h-2zM537 116h2v2h-2zM545 116h2v2h-2zM539 118h2v2h-2zM541 118h2v2h-2zM543 118h2v2h-2zM545 118h2v2h-2zM549 106h2v2h-2zM551 106h2v2h-2zM553 106h2v2h-2zM555 106h2v2h-2zM549 108h2v2h-2zM557 108h2v2h-2zM549 110h2v2h-2zM557 110h2v2h-2zM549 112h2v2h-2zM551 112h2v2h-2zM553 112h2v2h-2zM555 112h2v2h-2zM549 114h2v2h-2zM553 114h2v2h-2zM549 116h2v2h-2zM555 116h2v2h-2zM549 118h2v2h-2zM557 118h2v2h-2zM561 106h2v2h-2zM563 106h2v2h-2zM565 106h2v2h-2zM567 106h2v2h-2zM569 106h2v2h-2zM561 108h2v2h-2zM561 110h2v2h-2zM561 112h2v2h-2zM563 112h2v2h-2zM565 112h2v2h-2zM567 112h2v2h-2zM561 114h2v2h-2zM561 116h2v2h-2zM561 118h2v2h-2zM563 118h2v2h-2zM565 118h2v2h-2zM567 118h2v2h-2zM569 118h2v2h-2zM575 106h2v2h-2zM577 106h2v2h-2zM579 106h2v2h-2zM581 106h2v2h-2zM573 108h2v2h-2zM573 110h2v2h-2zM575 112h2v2h-2zM577 112h2v2h-2zM579 112h2v2h-2zM581 114h2v2h-2zM581 116h2v2h-2zM573 118h2v2h-2zM575 118h2v2h-2zM577 118h2v2h-2zM579 118h2v2h-2z" fill="#1f1238" shape-rendering="crispEdges"/><rect x="661.0" y="90" width="196" height="46" fill="#f1ead8" stroke="#1f1238" stroke-width="3"/><rect x="671.0" y="105" width="16" height="16" fill="#9ff0c4" stroke="#1f1238" stroke-width="2"/><path d="M701 106h2v2h-2zM703 106h2v2h-2zM705 106h2v2h-2zM707 106h2v2h-2zM699 108h2v2h-2zM699 110h2v2h-2zM701 112h2v2h-2zM703 112h2v2h-2zM705 112h2v2h-2zM707 114h2v2h-2zM707 116h2v2h-2zM699 118h2v2h-2zM701 118h2v2h-2zM703 118h2v2h-2zM705 118h2v2h-2zM711 106h2v2h-2zM719 106h2v2h-2zM711 108h2v2h-2zM719 108h2v2h-2zM711 110h2v2h-2zM719 110h2v2h-2zM711 112h2v2h-2zM719 112h2v2h-2zM711 114h2v2h-2zM719 114h2v2h-2zM711 116h2v2h-2zM719 116h2v2h-2zM713 118h2v2h-2zM715 118h2v2h-2zM717 118h2v2h-2zM723 106h2v2h-2zM725 106h2v2h-2zM727 106h2v2h-2zM729 106h2v2h-2zM723 108h2v2h-2zM731 108h2v2h-2zM723 110h2v2h-2zM731 110h2v2h-2zM723 112h2v2h-2zM725 112h2v2h-2zM727 112h2v2h-2zM729 112h2v2h-2zM723 114h2v2h-2zM723 116h2v2h-2zM723 118h2v2h-2zM737 106h2v2h-2zM739 106h2v2h-2zM741 106h2v2h-2zM735 108h2v2h-2zM743 108h2v2h-2zM735 110h2v2h-2zM743 110h2v2h-2zM735 112h2v2h-2zM737 112h2v2h-2zM739 112h2v2h-2zM741 112h2v2h-2zM743 112h2v2h-2zM735 114h2v2h-2zM743 114h2v2h-2zM735 116h2v2h-2zM743 116h2v2h-2zM735 118h2v2h-2zM743 118h2v2h-2zM747 106h2v2h-2zM749 106h2v2h-2zM751 106h2v2h-2zM753 106h2v2h-2zM747 108h2v2h-2zM755 108h2v2h-2zM747 110h2v2h-2zM755 110h2v2h-2zM747 112h2v2h-2zM749 112h2v2h-2zM751 112h2v2h-2zM753 112h2v2h-2zM747 114h2v2h-2zM755 114h2v2h-2zM747 116h2v2h-2zM755 116h2v2h-2zM747 118h2v2h-2zM749 118h2v2h-2zM751 118h2v2h-2zM753 118h2v2h-2zM761 106h2v2h-2zM763 106h2v2h-2zM765 106h2v2h-2zM759 108h2v2h-2zM767 108h2v2h-2zM759 110h2v2h-2zM767 110h2v2h-2zM759 112h2v2h-2zM761 112h2v2h-2zM763 112h2v2h-2zM765 112h2v2h-2zM767 112h2v2h-2zM759 114h2v2h-2zM767 114h2v2h-2zM759 116h2v2h-2zM767 116h2v2h-2zM759 118h2v2h-2zM767 118h2v2h-2zM773 106h2v2h-2zM775 106h2v2h-2zM777 106h2v2h-2zM779 106h2v2h-2zM771 108h2v2h-2zM771 110h2v2h-2zM773 112h2v2h-2zM775 112h2v2h-2zM777 112h2v2h-2zM779 114h2v2h-2zM779 116h2v2h-2zM771 118h2v2h-2zM773 118h2v2h-2zM775 118h2v2h-2zM777 118h2v2h-2zM783 106h2v2h-2zM785 106h2v2h-2zM787 106h2v2h-2zM789 106h2v2h-2zM791 106h2v2h-2zM783 108h2v2h-2zM783 110h2v2h-2zM783 112h2v2h-2zM785 112h2v2h-2zM787 112h2v2h-2zM789 112h2v2h-2zM783 114h2v2h-2zM783 116h2v2h-2zM783 118h2v2h-2zM785 118h2v2h-2zM787 118h2v2h-2zM789 118h2v2h-2zM791 118h2v2h-2z" fill="#1f1238" shape-rendering="crispEdges"/><rect x="31.0" y="150" width="196" height="46" fill="#f1ead8" stroke="#1f1238" stroke-width="3"/><rect x="41.0" y="165" width="16" height="16" fill="#9fd8ff" stroke="#1f1238" stroke-width="2"/><path d="M69 166h2v2h-2zM71 166h2v2h-2zM73 166h2v2h-2zM75 166h2v2h-2zM69 168h2v2h-2zM77 168h2v2h-2zM69 170h2v2h-2zM77 170h2v2h-2zM69 172h2v2h-2zM71 172h2v2h-2zM73 172h2v2h-2zM75 172h2v2h-2zM69 174h2v2h-2zM69 176h2v2h-2zM69 178h2v2h-2zM81 166h2v2h-2zM83 166h2v2h-2zM85 166h2v2h-2zM87 166h2v2h-2zM89 166h2v2h-2zM85 168h2v2h-2zM85 170h2v2h-2zM85 172h2v2h-2zM85 174h2v2h-2zM85 176h2v2h-2zM81 178h2v2h-2zM83 178h2v2h-2zM85 178h2v2h-2zM87 178h2v2h-2zM89 178h2v2h-2zM93 166h2v2h-2zM101 166h2v2h-2zM93 168h2v2h-2zM95 168h2v2h-2zM101 168h2v2h-2zM93 170h2v2h-2zM97 170h2v2h-2zM101 170h2v2h-2zM93 172h2v2h-2zM99 172h2v2h-2zM101 172h2v2h-2zM93 174h2v2h-2zM101 174h2v2h-2zM93 176h2v2h-2zM101 176h2v2h-2zM93 178h2v2h-2zM101 178h2v2h-2zM105 166h2v2h-2zM107 166h2v2h-2zM109 166h2v2h-2zM111 166h2v2h-2zM113 166h2v2h-2zM105 168h2v2h-2zM105 170h2v2h-2zM105 172h2v2h-2zM107 172h2v2h-2zM109 172h2v2h-2zM111 172h2v2h-2zM105 174h2v2h-2zM105 176h2v2h-2zM105 178h2v2h-2zM107 178h2v2h-2zM109 178h2v2h-2zM111 178h2v2h-2zM113 178h2v2h-2zM119 166h2v2h-2zM121 166h2v2h-2zM123 166h2v2h-2zM125 166h2v2h-2zM117 168h2v2h-2zM117 170h2v2h-2zM117 172h2v2h-2zM117 174h2v2h-2zM117 176h2v2h-2zM119 178h2v2h-2zM121 178h2v2h-2zM123 178h2v2h-2zM125 178h2v2h-2zM131 166h2v2h-2zM133 166h2v2h-2zM135 166h2v2h-2zM129 168h2v2h-2zM137 168h2v2h-2zM129 170h2v2h-2zM137 170h2v2h-2zM129 172h2v2h-2zM137 172h2v2h-2zM129 174h2v2h-2zM137 174h2v2h-2zM129 176h2v2h-2zM137 176h2v2h-2zM131 178h2v2h-2zM133 178h2v2h-2zM135 178h2v2h-2zM141 166h2v2h-2zM149 166h2v2h-2zM141 168h2v2h-2zM143 168h2v2h-2zM149 168h2v2h-2zM141 170h2v2h-2zM145 170h2v2h-2zM149 170h2v2h-2zM141 172h2v2h-2zM147 172h2v2h-2zM149 172h2v2h-2zM141 174h2v2h-2zM149 174h2v2h-2zM141 176h2v2h-2zM149 176h2v2h-2zM141 178h2v2h-2zM149 178h2v2h-2zM153 166h2v2h-2zM155 166h2v2h-2zM157 166h2v2h-2zM159 166h2v2h-2zM161 166h2v2h-2zM153 168h2v2h-2zM153 170h2v2h-2zM153 172h2v2h-2zM155 172h2v2h-2zM157 172h2v2h-2zM159 172h2v2h-2zM153 174h2v2h-2zM153 176h2v2h-2zM153 178h2v2h-2zM155 178h2v2h-2zM157 178h2v2h-2zM159 178h2v2h-2zM161 178h2v2h-2z" fill="#1f1238" shape-rendering="crispEdges"/><rect x="241.0" y="150" width="196" height="46" fill="#f1ead8" stroke="#1f1238" stroke-width="3"/><rect x="251.0" y="165" width="16" height="16" fill="#ffd21f" stroke="#1f1238" stroke-width="2"/><path d="M279 166h2v2h-2zM287 166h2v2h-2zM279 168h2v2h-2zM281 168h2v2h-2zM287 168h2v2h-2zM279 170h2v2h-2zM283 170h2v2h-2zM287 170h2v2h-2zM279 172h2v2h-2zM285 172h2v2h-2zM287 172h2v2h-2zM279 174h2v2h-2zM287 174h2v2h-2zM279 176h2v2h-2zM287 176h2v2h-2zM279 178h2v2h-2zM287 178h2v2h-2zM291 166h2v2h-2zM293 166h2v2h-2zM295 166h2v2h-2zM297 166h2v2h-2zM299 166h2v2h-2zM291 168h2v2h-2zM291 170h2v2h-2zM291 172h2v2h-2zM293 172h2v2h-2zM295 172h2v2h-2zM297 172h2v2h-2zM291 174h2v2h-2zM291 176h2v2h-2zM291 178h2v2h-2zM293 178h2v2h-2zM295 178h2v2h-2zM297 178h2v2h-2zM299 178h2v2h-2zM303 166h2v2h-2zM311 166h2v2h-2zM303 168h2v2h-2zM311 168h2v2h-2zM305 170h2v2h-2zM309 170h2v2h-2zM307 172h2v2h-2zM305 174h2v2h-2zM309 174h2v2h-2zM303 176h2v2h-2zM311 176h2v2h-2zM303 178h2v2h-2zM311 178h2v2h-2zM315 166h2v2h-2zM317 166h2v2h-2zM319 166h2v2h-2zM321 166h2v2h-2zM323 166h2v2h-2zM319 168h2v2h-2zM319 170h2v2h-2zM319 172h2v2h-2zM319 174h2v2h-2zM319 176h2v2h-2zM319 178h2v2h-2zM327 176h2v2h-2zM329 176h2v2h-2zM327 178h2v2h-2zM329 178h2v2h-2zM337 166h2v2h-2zM339 166h2v2h-2zM341 166h2v2h-2zM339 168h2v2h-2zM339 170h2v2h-2zM339 172h2v2h-2zM333 174h2v2h-2zM339 174h2v2h-2zM333 176h2v2h-2zM339 176h2v2h-2zM335 178h2v2h-2zM337 178h2v2h-2zM347 166h2v2h-2zM349 166h2v2h-2zM351 166h2v2h-2zM353 166h2v2h-2zM345 168h2v2h-2zM345 170h2v2h-2zM347 172h2v2h-2zM349 172h2v2h-2zM351 172h2v2h-2zM353 174h2v2h-2zM353 176h2v2h-2zM345 178h2v2h-2zM347 178h2v2h-2zM349 178h2v2h-2zM351 178h2v2h-2z" fill="#1f1238" shape-rendering="crispEdges"/><rect x="451.0" y="150" width="196" height="46" fill="#f1ead8" stroke="#1f1238" stroke-width="3"/><rect x="461.0" y="165" width="16" height="16" fill="#ff8fc8" stroke="#1f1238" stroke-width="2"/><path d="M489 166h2v2h-2zM491 166h2v2h-2zM493 166h2v2h-2zM495 166h2v2h-2zM497 166h2v2h-2zM493 168h2v2h-2zM493 170h2v2h-2zM493 172h2v2h-2zM493 174h2v2h-2zM493 176h2v2h-2zM493 178h2v2h-2zM501 166h2v2h-2zM509 166h2v2h-2zM501 168h2v2h-2zM509 168h2v2h-2zM503 170h2v2h-2zM507 170h2v2h-2zM505 172h2v2h-2zM505 174h2v2h-2zM505 176h2v2h-2zM505 178h2v2h-2zM513 166h2v2h-2zM515 166h2v2h-2zM517 166h2v2h-2zM519 166h2v2h-2zM513 168h2v2h-2zM521 168h2v2h-2zM513 170h2v2h-2zM521 170h2v2h-2zM513 172h2v2h-2zM515 172h2v2h-2zM517 172h2v2h-2zM519 172h2v2h-2zM513 174h2v2h-2zM513 176h2v2h-2zM513 178h2v2h-2zM525 166h2v2h-2zM527 166h2v2h-2zM529 166h2v2h-2zM531 166h2v2h-2zM533 166h2v2h-2zM525 168h2v2h-2zM525 170h2v2h-2zM525 172h2v2h-2zM527 172h2v2h-2zM529 172h2v2h-2zM531 172h2v2h-2zM525 174h2v2h-2zM525 176h2v2h-2zM525 178h2v2h-2zM527 178h2v2h-2zM529 178h2v2h-2zM531 178h2v2h-2zM533 178h2v2h-2zM539 166h2v2h-2zM541 166h2v2h-2zM543 166h2v2h-2zM545 166h2v2h-2zM537 168h2v2h-2zM537 170h2v2h-2zM539 172h2v2h-2zM541 172h2v2h-2zM543 172h2v2h-2zM545 174h2v2h-2zM545 176h2v2h-2zM537 178h2v2h-2zM539 178h2v2h-2zM541 178h2v2h-2zM543 178h2v2h-2zM551 166h2v2h-2zM553 166h2v2h-2zM555 166h2v2h-2zM557 166h2v2h-2zM549 168h2v2h-2zM549 170h2v2h-2zM549 172h2v2h-2zM549 174h2v2h-2zM549 176h2v2h-2zM551 178h2v2h-2zM553 178h2v2h-2zM555 178h2v2h-2zM557 178h2v2h-2zM561 166h2v2h-2zM563 166h2v2h-2zM565 166h2v2h-2zM567 166h2v2h-2zM561 168h2v2h-2zM569 168h2v2h-2zM561 170h2v2h-2zM569 170h2v2h-2zM561 172h2v2h-2zM563 172h2v2h-2zM565 172h2v2h-2zM567 172h2v2h-2zM561 174h2v2h-2zM565 174h2v2h-2zM561 176h2v2h-2zM567 176h2v2h-2zM561 178h2v2h-2zM569 178h2v2h-2zM573 166h2v2h-2zM575 166h2v2h-2zM577 166h2v2h-2zM579 166h2v2h-2zM581 166h2v2h-2zM577 168h2v2h-2zM577 170h2v2h-2zM577 172h2v2h-2zM577 174h2v2h-2zM577 176h2v2h-2zM573 178h2v2h-2zM575 178h2v2h-2zM577 178h2v2h-2zM579 178h2v2h-2zM581 178h2v2h-2zM585 166h2v2h-2zM587 166h2v2h-2zM589 166h2v2h-2zM591 166h2v2h-2zM585 168h2v2h-2zM593 168h2v2h-2zM585 170h2v2h-2zM593 170h2v2h-2zM585 172h2v2h-2zM587 172h2v2h-2zM589 172h2v2h-2zM591 172h2v2h-2zM585 174h2v2h-2zM585 176h2v2h-2zM585 178h2v2h-2zM597 166h2v2h-2zM599 166h2v2h-2zM601 166h2v2h-2zM603 166h2v2h-2zM605 166h2v2h-2zM601 168h2v2h-2zM601 170h2v2h-2zM601 172h2v2h-2zM601 174h2v2h-2zM601 176h2v2h-2zM601 178h2v2h-2z" fill="#1f1238" shape-rendering="crispEdges"/><rect x="661.0" y="150" width="196" height="46" fill="#f1ead8" stroke="#1f1238" stroke-width="3"/><rect x="671.0" y="165" width="16" height="16" fill="#9ff0c4" stroke="#1f1238" stroke-width="2"/><path d="M699 166h2v2h-2zM701 166h2v2h-2zM703 166h2v2h-2zM705 166h2v2h-2zM707 166h2v2h-2zM703 168h2v2h-2zM703 170h2v2h-2zM703 172h2v2h-2zM703 174h2v2h-2zM703 176h2v2h-2zM703 178h2v2h-2zM713 166h2v2h-2zM715 166h2v2h-2zM717 166h2v2h-2zM711 168h2v2h-2zM719 168h2v2h-2zM711 170h2v2h-2zM719 170h2v2h-2zM711 172h2v2h-2zM713 172h2v2h-2zM715 172h2v2h-2zM717 172h2v2h-2zM719 172h2v2h-2zM711 174h2v2h-2zM719 174h2v2h-2zM711 176h2v2h-2zM719 176h2v2h-2zM711 178h2v2h-2zM719 178h2v2h-2zM723 166h2v2h-2zM725 166h2v2h-2zM727 166h2v2h-2zM729 166h2v2h-2zM731 166h2v2h-2zM727 168h2v2h-2zM727 170h2v2h-2zM727 172h2v2h-2zM727 174h2v2h-2zM727 176h2v2h-2zM723 178h2v2h-2zM725 178h2v2h-2zM727 178h2v2h-2zM729 178h2v2h-2zM731 178h2v2h-2zM735 166h2v2h-2zM735 168h2v2h-2zM735 170h2v2h-2zM735 172h2v2h-2zM735 174h2v2h-2zM735 176h2v2h-2zM735 178h2v2h-2zM737 178h2v2h-2zM739 178h2v2h-2zM741 178h2v2h-2zM743 178h2v2h-2zM747 166h2v2h-2zM755 166h2v2h-2zM747 168h2v2h-2zM755 168h2v2h-2zM747 170h2v2h-2zM755 170h2v2h-2zM747 172h2v2h-2zM751 172h2v2h-2zM755 172h2v2h-2zM747 174h2v2h-2zM751 174h2v2h-2zM755 174h2v2h-2zM747 176h2v2h-2zM749 176h2v2h-2zM753 176h2v2h-2zM755 176h2v2h-2zM747 178h2v2h-2zM755 178h2v2h-2zM759 166h2v2h-2zM761 166h2v2h-2zM763 166h2v2h-2zM765 166h2v2h-2zM767 166h2v2h-2zM763 168h2v2h-2zM763 170h2v2h-2zM763 172h2v2h-2zM763 174h2v2h-2zM763 176h2v2h-2zM759 178h2v2h-2zM761 178h2v2h-2zM763 178h2v2h-2zM765 178h2v2h-2zM767 178h2v2h-2zM771 166h2v2h-2zM779 166h2v2h-2zM771 168h2v2h-2zM773 168h2v2h-2zM779 168h2v2h-2zM771 170h2v2h-2zM775 170h2v2h-2zM779 170h2v2h-2zM771 172h2v2h-2zM777 172h2v2h-2zM779 172h2v2h-2zM771 174h2v2h-2zM779 174h2v2h-2zM771 176h2v2h-2zM779 176h2v2h-2zM771 178h2v2h-2zM779 178h2v2h-2zM783 166h2v2h-2zM785 166h2v2h-2zM787 166h2v2h-2zM789 166h2v2h-2zM783 168h2v2h-2zM791 168h2v2h-2zM783 170h2v2h-2zM791 170h2v2h-2zM783 172h2v2h-2zM791 172h2v2h-2zM783 174h2v2h-2zM791 174h2v2h-2zM783 176h2v2h-2zM791 176h2v2h-2zM783 178h2v2h-2zM785 178h2v2h-2zM787 178h2v2h-2zM789 178h2v2h-2z" fill="#1f1238" shape-rendering="crispEdges"/><rect x="31.0" y="210" width="196" height="46" fill="#f1ead8" stroke="#1f1238" stroke-width="3"/><rect x="41.0" y="225" width="16" height="16" fill="#9fd8ff" stroke="#1f1238" stroke-width="2"/><path d="M71 226h2v2h-2zM73 226h2v2h-2zM75 226h2v2h-2zM77 226h2v2h-2zM69 228h2v2h-2zM69 230h2v2h-2zM71 232h2v2h-2zM73 232h2v2h-2zM75 232h2v2h-2zM77 234h2v2h-2zM77 236h2v2h-2zM69 238h2v2h-2zM71 238h2v2h-2zM73 238h2v2h-2zM75 238h2v2h-2zM81 226h2v2h-2zM89 226h2v2h-2zM81 228h2v2h-2zM89 228h2v2h-2zM81 230h2v2h-2zM89 230h2v2h-2zM81 232h2v2h-2zM85 232h2v2h-2zM89 232h2v2h-2zM81 234h2v2h-2zM85 234h2v2h-2zM89 234h2v2h-2zM81 236h2v2h-2zM83 236h2v2h-2zM87 236h2v2h-2zM89 236h2v2h-2zM81 238h2v2h-2zM89 238h2v2h-2zM93 226h2v2h-2zM95 226h2v2h-2zM97 226h2v2h-2zM99 226h2v2h-2zM101 226h2v2h-2zM97 228h2v2h-2zM97 230h2v2h-2zM97 232h2v2h-2zM97 234h2v2h-2zM97 236h2v2h-2zM93 238h2v2h-2zM95 238h2v2h-2zM97 238h2v2h-2zM99 238h2v2h-2zM101 238h2v2h-2zM105 226h2v2h-2zM107 226h2v2h-2zM109 226h2v2h-2zM111 226h2v2h-2zM113 226h2v2h-2zM105 228h2v2h-2zM105 230h2v2h-2zM105 232h2v2h-2zM107 232h2v2h-2zM109 232h2v2h-2zM111 232h2v2h-2zM105 234h2v2h-2zM105 236h2v2h-2zM105 238h2v2h-2zM117 226h2v2h-2zM119 226h2v2h-2zM121 226h2v2h-2zM123 226h2v2h-2zM125 226h2v2h-2zM121 228h2v2h-2zM121 230h2v2h-2zM121 232h2v2h-2zM121 234h2v2h-2zM121 236h2v2h-2zM121 238h2v2h-2z" fill="#1f1238" shape-rendering="crispEdges"/><rect x="241.0" y="210" width="196" height="46" fill="#f1ead8" stroke="#1f1238" stroke-width="3"/><rect x="251.0" y="225" width="16" height="16" fill="#ffd21f" stroke="#1f1238" stroke-width="2"/><path d="M281 226h2v2h-2zM283 226h2v2h-2zM285 226h2v2h-2zM287 226h2v2h-2zM279 228h2v2h-2zM279 230h2v2h-2zM279 232h2v2h-2zM279 234h2v2h-2zM279 236h2v2h-2zM281 238h2v2h-2zM283 238h2v2h-2zM285 238h2v2h-2zM287 238h2v2h-2zM291 226h2v2h-2zM299 226h2v2h-2zM291 228h2v2h-2zM299 228h2v2h-2zM291 230h2v2h-2zM299 230h2v2h-2zM291 232h2v2h-2zM293 232h2v2h-2zM295 232h2v2h-2zM297 232h2v2h-2zM299 232h2v2h-2zM291 234h2v2h-2zM299 234h2v2h-2zM291 236h2v2h-2zM299 236h2v2h-2zM291 238h2v2h-2zM299 238h2v2h-2zM303 226h2v2h-2zM305 226h2v2h-2zM307 226h2v2h-2zM309 226h2v2h-2zM303 228h2v2h-2zM311 228h2v2h-2zM303 230h2v2h-2zM311 230h2v2h-2zM303 232h2v2h-2zM305 232h2v2h-2zM307 232h2v2h-2zM309 232h2v2h-2zM303 234h2v2h-2zM307 234h2v2h-2zM303 236h2v2h-2zM309 236h2v2h-2zM303 238h2v2h-2zM311 238h2v2h-2zM317 226h2v2h-2zM319 226h2v2h-2zM321 226h2v2h-2zM315 228h2v2h-2zM323 228h2v2h-2zM315 230h2v2h-2zM323 230h2v2h-2zM315 232h2v2h-2zM323 232h2v2h-2zM315 234h2v2h-2zM323 234h2v2h-2zM315 236h2v2h-2zM323 236h2v2h-2zM317 238h2v2h-2zM319 238h2v2h-2zM321 238h2v2h-2zM327 226h2v2h-2zM335 226h2v2h-2zM327 228h2v2h-2zM329 228h2v2h-2zM333 228h2v2h-2zM335 228h2v2h-2zM327 230h2v2h-2zM331 230h2v2h-2zM335 230h2v2h-2zM327 232h2v2h-2zM331 232h2v2h-2zM335 232h2v2h-2zM327 234h2v2h-2zM335 234h2v2h-2zM327 236h2v2h-2zM335 236h2v2h-2zM327 238h2v2h-2zM335 238h2v2h-2zM339 226h2v2h-2zM341 226h2v2h-2zM343 226h2v2h-2zM345 226h2v2h-2zM347 226h2v2h-2zM339 228h2v2h-2zM339 230h2v2h-2zM339 232h2v2h-2zM341 232h2v2h-2zM343 232h2v2h-2zM345 232h2v2h-2zM339 234h2v2h-2zM339 236h2v2h-2zM339 238h2v2h-2zM341 238h2v2h-2zM343 238h2v2h-2zM345 238h2v2h-2zM347 238h2v2h-2zM359 226h2v2h-2zM367 226h2v2h-2zM359 228h2v2h-2zM361 228h2v2h-2zM365 228h2v2h-2zM367 228h2v2h-2zM359 230h2v2h-2zM363 230h2v2h-2zM367 230h2v2h-2zM359 232h2v2h-2zM363 232h2v2h-2zM367 232h2v2h-2zM359 234h2v2h-2zM367 234h2v2h-2zM359 236h2v2h-2zM367 236h2v2h-2zM359 238h2v2h-2zM367 238h2v2h-2zM371 226h2v2h-2zM379 226h2v2h-2zM371 228h2v2h-2zM379 228h2v2h-2zM371 230h2v2h-2zM379 230h2v2h-2zM371 232h2v2h-2zM379 232h2v2h-2zM371 234h2v2h-2zM379 234h2v2h-2zM373 236h2v2h-2zM377 236h2v2h-2zM375 238h2v2h-2zM383 226h2v2h-2zM385 226h2v2h-2zM387 226h2v2h-2zM389 226h2v2h-2zM391 228h2v2h-2zM391 230h2v2h-2zM385 232h2v2h-2zM387 232h2v2h-2zM389 232h2v2h-2zM391 234h2v2h-2zM391 236h2v2h-2zM383 238h2v2h-2zM385 238h2v2h-2zM387 238h2v2h-2zM389 238h2v2h-2z" fill="#1f1238" shape-rendering="crispEdges"/><rect x="451.0" y="210" width="196" height="46" fill="#f1ead8" stroke="#1f1238" stroke-width="3"/><rect x="461.0" y="225" width="16" height="16" fill="#ff8fc8" stroke="#1f1238" stroke-width="2"/><path d="M489 226h2v2h-2zM491 226h2v2h-2zM493 226h2v2h-2zM495 226h2v2h-2zM489 228h2v2h-2zM497 228h2v2h-2zM489 230h2v2h-2zM497 230h2v2h-2zM489 232h2v2h-2zM497 232h2v2h-2zM489 234h2v2h-2zM497 234h2v2h-2zM489 236h2v2h-2zM497 236h2v2h-2zM489 238h2v2h-2zM491 238h2v2h-2zM493 238h2v2h-2zM495 238h2v2h-2zM503 226h2v2h-2zM505 226h2v2h-2zM507 226h2v2h-2zM501 228h2v2h-2zM509 228h2v2h-2zM501 230h2v2h-2zM509 230h2v2h-2zM501 232h2v2h-2zM509 232h2v2h-2zM501 234h2v2h-2zM509 234h2v2h-2zM501 236h2v2h-2zM509 236h2v2h-2zM503 238h2v2h-2zM505 238h2v2h-2zM507 238h2v2h-2zM515 226h2v2h-2zM517 226h2v2h-2zM519 226h2v2h-2zM521 226h2v2h-2zM513 228h2v2h-2zM513 230h2v2h-2zM513 232h2v2h-2zM513 234h2v2h-2zM513 236h2v2h-2zM515 238h2v2h-2zM517 238h2v2h-2zM519 238h2v2h-2zM521 238h2v2h-2zM525 226h2v2h-2zM533 226h2v2h-2zM525 228h2v2h-2zM531 228h2v2h-2zM525 230h2v2h-2zM529 230h2v2h-2zM525 232h2v2h-2zM527 232h2v2h-2zM525 234h2v2h-2zM529 234h2v2h-2zM525 236h2v2h-2zM531 236h2v2h-2zM525 238h2v2h-2zM533 238h2v2h-2zM537 226h2v2h-2zM539 226h2v2h-2zM541 226h2v2h-2zM543 226h2v2h-2zM545 226h2v2h-2zM537 228h2v2h-2zM537 230h2v2h-2zM537 232h2v2h-2zM539 232h2v2h-2zM541 232h2v2h-2zM543 232h2v2h-2zM537 234h2v2h-2zM537 236h2v2h-2zM537 238h2v2h-2zM539 238h2v2h-2zM541 238h2v2h-2zM543 238h2v2h-2zM545 238h2v2h-2zM549 226h2v2h-2zM551 226h2v2h-2zM553 226h2v2h-2zM555 226h2v2h-2zM549 228h2v2h-2zM557 228h2v2h-2zM549 230h2v2h-2zM557 230h2v2h-2zM549 232h2v2h-2zM551 232h2v2h-2zM553 232h2v2h-2zM555 232h2v2h-2zM549 234h2v2h-2zM553 234h2v2h-2zM549 236h2v2h-2zM555 236h2v2h-2zM549 238h2v2h-2zM557 238h2v2h-2z" fill="#1f1238" shape-rendering="crispEdges"/><rect x="661.0" y="210" width="196" height="46" fill="#f1ead8" stroke="#1f1238" stroke-width="3"/><rect x="671.0" y="225" width="16" height="16" fill="#9ff0c4" stroke="#1f1238" stroke-width="2"/><path d="M701 226h2v2h-2zM703 226h2v2h-2zM705 226h2v2h-2zM707 226h2v2h-2zM699 228h2v2h-2zM699 230h2v2h-2zM699 232h2v2h-2zM699 234h2v2h-2zM699 236h2v2h-2zM701 238h2v2h-2zM703 238h2v2h-2zM705 238h2v2h-2zM707 238h2v2h-2zM711 226h2v2h-2zM711 228h2v2h-2zM711 230h2v2h-2zM711 232h2v2h-2zM711 234h2v2h-2zM711 236h2v2h-2zM711 238h2v2h-2zM713 238h2v2h-2zM715 238h2v2h-2zM717 238h2v2h-2zM719 238h2v2h-2zM725 226h2v2h-2zM727 226h2v2h-2zM729 226h2v2h-2zM723 228h2v2h-2zM731 228h2v2h-2zM723 230h2v2h-2zM731 230h2v2h-2zM723 232h2v2h-2zM731 232h2v2h-2zM723 234h2v2h-2zM731 234h2v2h-2zM723 236h2v2h-2zM731 236h2v2h-2zM725 238h2v2h-2zM727 238h2v2h-2zM729 238h2v2h-2zM735 226h2v2h-2zM743 226h2v2h-2zM735 228h2v2h-2zM743 228h2v2h-2zM735 230h2v2h-2zM743 230h2v2h-2zM735 232h2v2h-2zM743 232h2v2h-2zM735 234h2v2h-2zM743 234h2v2h-2zM735 236h2v2h-2zM743 236h2v2h-2zM737 238h2v2h-2zM739 238h2v2h-2zM741 238h2v2h-2zM747 226h2v2h-2zM749 226h2v2h-2zM751 226h2v2h-2zM753 226h2v2h-2zM747 228h2v2h-2zM755 228h2v2h-2zM747 230h2v2h-2zM755 230h2v2h-2zM747 232h2v2h-2zM755 232h2v2h-2zM747 234h2v2h-2zM755 234h2v2h-2zM747 236h2v2h-2zM755 236h2v2h-2zM747 238h2v2h-2zM749 238h2v2h-2zM751 238h2v2h-2zM753 238h2v2h-2zM767 226h2v2h-2zM769 226h2v2h-2zM771 226h2v2h-2zM773 226h2v2h-2zM767 228h2v2h-2zM775 228h2v2h-2zM767 230h2v2h-2zM775 230h2v2h-2zM767 232h2v2h-2zM769 232h2v2h-2zM771 232h2v2h-2zM773 232h2v2h-2zM767 234h2v2h-2zM771 234h2v2h-2zM767 236h2v2h-2zM773 236h2v2h-2zM767 238h2v2h-2zM775 238h2v2h-2zM779 226h2v2h-2zM787 226h2v2h-2zM779 228h2v2h-2zM787 228h2v2h-2zM779 230h2v2h-2zM787 230h2v2h-2zM779 232h2v2h-2zM787 232h2v2h-2zM779 234h2v2h-2zM787 234h2v2h-2zM779 236h2v2h-2zM787 236h2v2h-2zM781 238h2v2h-2zM783 238h2v2h-2zM785 238h2v2h-2zM791 226h2v2h-2zM799 226h2v2h-2zM791 228h2v2h-2zM793 228h2v2h-2zM799 228h2v2h-2zM791 230h2v2h-2zM795 230h2v2h-2zM799 230h2v2h-2zM791 232h2v2h-2zM797 232h2v2h-2zM799 232h2v2h-2zM791 234h2v2h-2zM799 234h2v2h-2zM791 236h2v2h-2zM799 236h2v2h-2zM791 238h2v2h-2zM799 238h2v2h-2z" fill="#1f1238" shape-rendering="crispEdges"/></svg>
