<svg xmlns="http://www.w3.org/2000/svg" width="700" height="318" viewBox="0 0 700 318" role="img" aria-label="HMPH. FINE. I'LL DO THE INTRO."><rect x="10" y="10" width="676" height="272" fill="#1f1238"/><polygon points="50,282 82,282 32,312" fill="#1f1238"/><rect x="4" y="4" width="676" height="272" fill="#fff8e7" stroke="#1f1238" stroke-width="4"/><polygon points="44,276 76,276 26,306" fill="#fff8e7" stroke="#1f1238" stroke-width="4" stroke-linejoin="round"/><rect x="47" y="273" width="26" height="5" fill="#fff8e7"/><path d="M30 30h3v3h-3zM42 30h3v3h-3zM30 33h3v3h-3zM42 33h3v3h-3zM30 36h3v3h-3zM42 36h3v3h-3zM30 39h3v3h-3zM33 39h3v3h-3zM36 39h3v3h-3zM39 39h3v3h-3zM42 39h3v3h-3zM30 42h3v3h-3zM42 42h3v3h-3zM30 45h3v3h-3zM42 45h3v3h-3zM30 48h3v3h-3zM42 48h3v3h-3zM48 30h3v3h-3zM60 30h3v3h-3zM48 33h3v3h-3zM51 33h3v3h-3zM57 33h3v3h-3zM60 33h3v3h-3zM48 36h3v3h-3zM54 36h3v3h-3zM60 36h3v3h-3zM48 39h3v3h-3zM54 39h3v3h-3zM60 39h3v3h-3zM48 42h3v3h-3zM60 42h3v3h-3zM48 45h3v3h-3zM60 45h3v3h-3zM48 48h3v3h-3zM60 48h3v3h-3zM66 30h3v3h-3zM69 30h3v3h-3zM72 30h3v3h-3zM75 30h3v3h-3zM66 33h3v3h-3zM78 33h3v3h-3zM66 36h3v3h-3zM78 36h3v3h-3zM66 39h3v3h-3zM69 39h3v3h-3zM72 39h3v3h-3zM75 39h3v3h-3zM66 42h3v3h-3zM66 45h3v3h-3zM66 48h3v3h-3zM84 30h3v3h-3zM96 30h3v3h-3zM84 33h3v3h-3zM96 33h3v3h-3zM84 36h3v3h-3zM96 36h3v3h-3zM84 39h3v3h-3zM87 39h3v3h-3zM90 39h3v3h-3zM93 39h3v3h-3zM96 39h3v3h-3zM84 42h3v3h-3zM96 42h3v3h-3zM84 45h3v3h-3zM96 45h3v3h-3zM84 48h3v3h-3zM96 48h3v3h-3zM102 45h3v3h-3zM105 45h3v3h-3zM102 48h3v3h-3zM105 48h3v3h-3zM123 30h3v3h-3zM126 30h3v3h-3zM129 30h3v3h-3zM132 30h3v3h-3zM135 30h3v3h-3zM123 33h3v3h-3zM123 36h3v3h-3zM123 39h3v3h-3zM126 39h3v3h-3zM129 39h3v3h-3zM132 39h3v3h-3zM123 42h3v3h-3zM123 45h3v3h-3zM123 48h3v3h-3zM141 30h3v3h-3zM144 30h3v3h-3zM147 30h3v3h-3zM150 30h3v3h-3zM153 30h3v3h-3zM147 33h3v3h-3zM147 36h3v3h-3zM147 39h3v3h-3zM147 42h3v3h-3zM147 45h3v3h-3zM141 48h3v3h-3zM144 48h3v3h-3zM147 48h3v3h-3zM150 48h3v3h-3zM153 48h3v3h-3zM159 30h3v3h-3zM171 30h3v3h-3zM159 33h3v3h-3zM162 33h3v3h-3zM171 33h3v3h-3zM159 36h3v3h-3zM165 36h3v3h-3zM171 36h3v3h-3zM159 39h3v3h-3zM168 39h3v3h-3zM171 39h3v3h-3zM159 42h3v3h-3zM171 42h3v3h-3zM159 45h3v3h-3zM171 45h3v3h-3zM159 48h3v3h-3zM171 48h3v3h-3zM177 30h3v3h-3zM180 30h3v3h-3zM183 30h3v3h-3zM186 30h3v3h-3zM189 30h3v3h-3zM177 33h3v3h-3zM177 36h3v3h-3zM177 39h3v3h-3zM180 39h3v3h-3zM183 39h3v3h-3zM186 39h3v3h-3zM177 42h3v3h-3zM177 45h3v3h-3zM177 48h3v3h-3zM180 48h3v3h-3zM183 48h3v3h-3zM186 48h3v3h-3zM189 48h3v3h-3zM195 45h3v3h-3zM198 45h3v3h-3zM195 48h3v3h-3zM198 48h3v3h-3zM216 30h3v3h-3zM219 30h3v3h-3zM222 30h3v3h-3zM225 30h3v3h-3zM228 30h3v3h-3zM222 33h3v3h-3zM222 36h3v3h-3zM222 39h3v3h-3zM222 42h3v3h-3zM222 45h3v3h-3zM216 48h3v3h-3zM219 48h3v3h-3zM222 48h3v3h-3zM225 48h3v3h-3zM228 48h3v3h-3zM234 30h3v3h-3zM234 33h3v3h-3zM240 30h3v3h-3zM240 33h3v3h-3zM240 36h3v3h-3zM240 39h3v3h-3zM240 42h3v3h-3zM240 45h3v3h-3zM240 48h3v3h-3zM243 48h3v3h-3zM246 48h3v3h-3zM249 48h3v3h-3zM252 48h3v3h-3zM258 30h3v3h-3zM258 33h3v3h-3zM258 36h3v3h-3zM258 39h3v3h-3zM258 42h3v3h-3zM258 45h3v3h-3zM258 48h3v3h-3zM261 48h3v3h-3zM264 48h3v3h-3zM267 48h3v3h-3zM270 48h3v3h-3zM288 30h3v3h-3zM291 30h3v3h-3zM294 30h3v3h-3zM297 30h3v3h-3zM288 33h3v3h-3zM300 33h3v3h-3zM288 36h3v3h-3zM300 36h3v3h-3zM288 39h3v3h-3zM300 39h3v3h-3zM288 42h3v3h-3zM300 42h3v3h-3zM288 45h3v3h-3zM300 45h3v3h-3zM288 48h3v3h-3zM291 48h3v3h-3zM294 48h3v3h-3zM297 48h3v3h-3zM309 30h3v3h-3zM312 30h3v3h-3zM315 30h3v3h-3zM306 33h3v3h-3zM318 33h3v3h-3zM306 36h3v3h-3zM318 36h3v3h-3zM306 39h3v3h-3zM318 39h3v3h-3zM306 42h3v3h-3zM318 42h3v3h-3zM306 45h3v3h-3zM318 45h3v3h-3zM309 48h3v3h-3zM312 48h3v3h-3zM315 48h3v3h-3zM336 30h3v3h-3zM339 30h3v3h-3zM342 30h3v3h-3zM345 30h3v3h-3zM348 30h3v3h-3zM342 33h3v3h-3zM342 36h3v3h-3zM342 39h3v3h-3zM342 42h3v3h-3zM342 45h3v3h-3zM342 48h3v3h-3zM354 30h3v3h-3zM366 30h3v3h-3zM354 33h3v3h-3zM366 33h3v3h-3zM354 36h3v3h-3zM366 36h3v3h-3zM354 39h3v3h-3zM357 39h3v3h-3zM360 39h3v3h-3zM363 39h3v3h-3zM366 39h3v3h-3zM354 42h3v3h-3zM366 42h3v3h-3zM354 45h3v3h-3zM366 45h3v3h-3zM354 48h3v3h-3zM366 48h3v3h-3zM372 30h3v3h-3zM375 30h3v3h-3zM378 30h3v3h-3zM381 30h3v3h-3zM384 30h3v3h-3zM372 33h3v3h-3zM372 36h3v3h-3zM372 39h3v3h-3zM375 39h3v3h-3zM378 39h3v3h-3zM381 39h3v3h-3zM372 42h3v3h-3zM372 45h3v3h-3zM372 48h3v3h-3zM375 48h3v3h-3zM378 48h3v3h-3zM381 48h3v3h-3zM384 48h3v3h-3zM402 30h3v3h-3zM405 30h3v3h-3zM408 30h3v3h-3zM411 30h3v3h-3zM414 30h3v3h-3zM408 33h3v3h-3zM408 36h3v3h-3zM408 39h3v3h-3zM408 42h3v3h-3zM408 45h3v3h-3zM402 48h3v3h-3zM405 48h3v3h-3zM408 48h3v3h-3zM411 48h3v3h-3zM414 48h3v3h-3zM420 30h3v3h-3zM432 30h3v3h-3zM420 33h3v3h-3zM423 33h3v3h-3zM432 33h3v3h-3zM420 36h3v3h-3zM426 36h3v3h-3zM432 36h3v3h-3zM420 39h3v3h-3zM429 39h3v3h-3zM432 39h3v3h-3zM420 42h3v3h-3zM432 42h3v3h-3zM420 45h3v3h-3zM432 45h3v3h-3zM420 48h3v3h-3zM432 48h3v3h-3zM438 30h3v3h-3zM441 30h3v3h-3zM444 30h3v3h-3zM447 30h3v3h-3zM450 30h3v3h-3zM444 33h3v3h-3zM444 36h3v3h-3zM444 39h3v3h-3zM444 42h3v3h-3zM444 45h3v3h-3zM444 48h3v3h-3zM456 30h3v3h-3zM459 30h3v3h-3zM462 30h3v3h-3zM465 30h3v3h-3zM456 33h3v3h-3zM468 33h3v3h-3zM456 36h3v3h-3zM468 36h3v3h-3zM456 39h3v3h-3zM459 39h3v3h-3zM462 39h3v3h-3zM465 39h3v3h-3zM456 42h3v3h-3zM462 42h3v3h-3zM456 45h3v3h-3zM465 45h3v3h-3zM456 48h3v3h-3zM468 48h3v3h-3zM477 30h3v3h-3zM480 30h3v3h-3zM483 30h3v3h-3zM474 33h3v3h-3zM486 33h3v3h-3zM474 36h3v3h-3zM486 36h3v3h-3zM474 39h3v3h-3zM486 39h3v3h-3zM474 42h3v3h-3zM486 42h3v3h-3zM474 45h3v3h-3zM486 45h3v3h-3zM477 48h3v3h-3zM480 48h3v3h-3zM483 48h3v3h-3zM492 45h3v3h-3zM495 45h3v3h-3zM492 48h3v3h-3zM495 48h3v3h-3z" fill="#1f1238" shape-rendering="crispEdges"/><text x="30" y="89" font-family="-apple-system, 'Segoe UI', Helvetica, Arial, sans-serif" font-size="15.5" fill="#1f1238">this is somay. third-year cs at abv-iiitm gwalior. he builds ai agents, and then the</text><text x="30" y="112" font-family="-apple-system, 'Segoe UI', Helvetica, Arial, sans-serif" font-size="15.5" fill="#1f1238">boring parts that keep them honest: memory that stays right after it's proven wrong,</text><text x="30" y="135" font-family="-apple-system, 'Segoe UI', Helvetica, Arial, sans-serif" font-size="15.5" fill="#1f1238">permissions a sub-agent can't sneak around, proof that a human actually read the</text><text x="30" y="158" font-family="-apple-system, 'Segoe UI', Helvetica, Arial, sans-serif" font-size="15.5" fill="#1f1238">code before it shipped.</text><text x="30" y="191" font-family="-apple-system, 'Segoe UI', Helvetica, Arial, sans-serif" font-size="15.5" fill="#1f1238">co-founder at aye aye, freelancing at standout. before that he was an ai systems</text><text x="30" y="214" font-family="-apple-system, 'Segoe UI', Helvetica, Arial, sans-serif" font-size="15.5" fill="#1f1238">engineer intern at ryse, where his orchestrator routed 10,000+ tasks a day. he also</text><text x="30" y="237" font-family="-apple-system, 'Segoe UI', Helvetica, Arial, sans-serif" font-size="15.5" fill="#1f1238">made me, to remind him to drink water. he ignores me. so i take over his screen.</text></svg>
